<svg id="svg" version="1.1" xmlns="http://www.w3.org/2000/svg" xmlns:xlink="http://www.w3.org/1999/xlink" width="400" height="365.0969529085873" viewBox="0, 0, 400,365.0969529085873"><g id="svgg"><path id="path0" d="M194.044 21.070 C 185.237 21.385,178.470 22.079,171.191 23.414 C 166.765 24.225,162.617 25.094,160.526 25.648 C 159.155 26.011,156.849 26.622,155.402 27.007 C 137.130 31.864,118.835 40.600,101.247 52.864 C 90.809 60.143,77.806 72.537,68.797 83.795 C 24.953 138.584,21.437 215.648,60.152 273.269 C 65.928 281.866,69.217 286.092,75.670 293.213 C 101.605 321.833,139.544 341.734,177.008 346.372 C 178.913 346.608,182.084 346.997,184.056 347.237 C 191.129 348.099,211.324 348.274,215.235 347.508 C 215.616 347.434,217.611 347.187,219.668 346.960 C 232.435 345.553,245.261 342.623,257.064 338.418 C 263.890 335.986,264.337 335.815,266.646 334.749 C 267.851 334.194,270.270 333.121,272.022 332.366 C 273.774 331.611,276.392 330.360,277.839 329.585 C 279.287 328.811,281.219 327.783,282.133 327.301 C 286.743 324.870,288.451 323.816,296.156 318.647 C 317.657 304.225,337.405 282.329,348.756 260.326 C 349.363 259.149,350.230 257.503,350.682 256.667 C 361.309 237.026,367.853 209.485,367.864 184.365 C 367.867 176.829,367.763 174.736,367.012 167.175 C 364.072 137.573,351.765 107.696,332.723 83.934 C 323.316 72.195,310.480 59.948,299.861 52.579 C 292.767 47.656,288.224 44.753,284.349 42.667 C 283.130 42.011,282.008 41.378,281.856 41.261 C 280.465 40.195,266.104 33.578,261.773 32.007 C 260.630 31.592,259.197 31.063,258.587 30.830 C 251.591 28.155,240.995 25.298,231.717 23.584 C 224.696 22.288,222.950 22.060,212.327 21.061 C 209.037 20.752,202.833 20.755,194.044 21.070 M215.928 30.297 C 226.964 31.530,237.169 33.365,242.521 35.081 C 243.740 35.472,245.001 35.840,245.323 35.900 C 246.143 36.052,255.300 38.972,256.648 39.512 C 257.258 39.756,258.037 40.065,258.380 40.199 C 259.727 40.727,260.290 40.959,261.303 41.404 C 261.882 41.659,263.378 42.281,264.627 42.786 C 269.855 44.900,279.719 49.998,284.488 53.050 C 285.021 53.391,287.078 54.708,289.058 55.976 C 292.376 58.100,301.427 64.749,303.048 66.254 C 303.430 66.608,304.614 67.603,305.680 68.465 C 310.212 72.131,323.196 85.581,325.160 88.643 C 325.404 89.024,326.304 90.208,327.161 91.274 C 330.130 94.972,337.950 106.443,337.950 107.101 C 337.950 107.201,338.744 108.667,339.715 110.359 C 346.934 122.943,354.077 142.205,356.226 154.881 C 356.364 155.701,356.664 157.431,356.891 158.726 C 358.752 169.353,359.571 185.792,358.713 195.275 C 357.627 207.266,355.262 220.177,352.798 227.562 C 352.289 229.086,351.621 231.143,351.312 232.133 C 350.248 235.540,347.993 241.693,347.147 243.490 C 346.682 244.481,345.485 247.082,344.488 249.271 C 342.790 253.000,339.813 258.545,337.359 262.551 C 336.770 263.512,336.288 264.337,336.288 264.385 C 336.288 264.599,331.079 272.364,329.679 274.238 C 320.036 287.143,310.547 296.790,297.733 306.717 C 295.619 308.355,293.819 309.695,293.733 309.695 C 293.646 309.695,291.998 310.777,290.070 312.099 C 279.423 319.399,266.566 325.781,253.297 330.351 C 248.286 332.077,240.210 334.489,238.643 334.728 C 238.186 334.797,236.752 335.105,235.457 335.411 C 233.362 335.906,228.170 336.847,222.992 337.671 C 211.427 339.510,191.835 339.710,181.025 338.098 C 173.036 336.907,168.989 336.166,162.771 334.755 C 154.826 332.952,139.803 327.900,135.215 325.488 C 134.663 325.197,132.777 324.306,131.025 323.508 C 128.381 322.303,125.798 320.979,121.992 318.878 C 104.344 309.133,88.171 295.386,75.176 279.086 C 70.788 273.582,67.125 268.438,65.511 265.512 C 65.175 264.903,63.878 262.722,62.630 260.665 C 51.912 243.005,45.132 221.712,42.520 197.507 C 41.378 186.930,42.131 169.596,44.216 158.449 C 45.538 151.376,49.397 136.284,50.130 135.319 C 50.245 135.166,50.992 133.234,51.788 131.025 C 55.553 120.590,61.689 108.661,68.175 99.169 C 71.366 94.500,72.141 93.439,74.754 90.166 C 86.479 75.483,100.809 62.657,115.323 53.856 C 116.056 53.411,116.867 52.920,117.123 52.764 C 117.380 52.609,118.151 52.117,118.837 51.671 C 120.682 50.472,131.136 45.072,134.211 43.730 C 145.734 38.700,159.134 34.394,168.560 32.692 C 176.655 31.230,183.139 30.377,188.781 30.033 C 190.457 29.931,191.891 29.788,191.967 29.715 C 192.294 29.402,212.254 29.887,215.928 30.297 M209.695 119.936 C 209.695 120.322,210.876 122.559,211.137 122.669 C 211.258 122.719,211.357 122.856,211.357 122.973 C 211.357 123.090,212.708 125.666,214.359 128.698 C 216.010 131.730,219.210 137.639,221.470 141.828 C 223.730 146.018,226.571 151.253,227.785 153.463 C 228.999 155.672,230.640 158.726,231.433 160.249 C 233.053 163.363,235.575 167.921,236.239 168.934 C 236.654 169.568,236.640 169.633,235.964 170.189 C 235.571 170.512,233.038 172.770,230.334 175.208 C 227.630 177.645,224.575 180.388,223.546 181.302 C 222.516 182.216,219.460 184.958,216.754 187.396 C 214.048 189.834,211.384 192.194,210.834 192.641 C 210.284 193.088,208.988 194.258,207.954 195.240 C 206.920 196.221,206.035 196.977,205.987 196.920 C 205.940 196.862,203.933 192.950,201.528 188.227 C 199.122 183.504,196.253 177.895,195.152 175.762 C 192.870 171.342,187.173 160.224,183.725 153.463 L 181.394 148.892 177.698 150.693 C 175.665 151.683,173.992 152.631,173.981 152.800 C 173.956 153.185,175.687 156.615,175.970 156.741 C 176.084 156.791,176.177 157.072,176.177 157.364 C 176.177 157.656,176.302 157.895,176.454 157.895 C 176.607 157.895,176.731 158.134,176.731 158.426 C 176.731 158.718,176.828 158.998,176.947 159.049 C 177.065 159.100,178.827 162.445,180.863 166.482 C 182.898 170.519,184.653 173.947,184.763 174.100 C 184.874 174.252,187.093 178.553,189.694 183.657 C 192.296 188.760,194.713 193.497,195.065 194.183 C 195.418 194.868,195.831 195.521,195.983 195.633 C 196.136 195.745,196.152 195.838,196.019 195.841 C 195.886 195.843,195.899 196.001,196.049 196.191 C 196.198 196.382,198.224 200.277,200.550 204.848 C 202.876 209.418,205.376 214.280,206.105 215.651 C 206.834 217.022,208.666 220.575,210.175 223.546 C 211.684 226.517,214.270 231.565,215.921 234.765 C 220.126 242.912,220.831 244.358,220.675 244.514 C 220.600 244.589,218.504 243.776,216.017 242.706 C 213.530 241.637,210.000 240.144,208.172 239.388 C 206.343 238.633,203.227 237.327,201.247 236.486 C 199.266 235.646,196.212 234.366,194.460 233.643 C 192.708 232.919,190.277 231.865,189.058 231.301 C 187.839 230.736,186.530 230.177,186.150 230.057 C 185.769 229.938,182.403 228.539,178.670 226.948 C 174.938 225.357,170.512 223.499,168.837 222.818 C 167.161 222.138,165.540 221.467,165.235 221.328 C 162.536 220.094,158.395 218.313,156.105 217.402 C 151.615 215.616,146.143 213.260,145.859 212.991 C 145.262 212.427,144.648 212.769,144.190 213.920 C 143.933 214.567,143.532 215.533,143.301 216.066 C 143.069 216.600,142.785 217.285,142.669 217.590 C 142.554 217.895,142.249 218.627,141.993 219.217 C 141.431 220.513,141.157 220.247,144.473 221.623 C 145.989 222.252,148.289 223.241,149.584 223.821 C 150.880 224.401,152.999 225.311,154.294 225.844 C 155.589 226.377,160.201 228.309,164.543 230.139 C 168.885 231.968,173.435 233.865,174.654 234.354 C 175.873 234.843,176.994 235.342,177.147 235.464 C 177.299 235.585,178.733 236.208,180.332 236.848 C 182.989 237.911,190.710 241.163,204.986 247.231 C 207.957 248.494,212.071 250.210,214.127 251.046 C 216.184 251.881,218.960 253.078,220.296 253.706 C 221.632 254.334,222.836 254.848,222.971 254.848 C 223.397 254.848,226.988 256.530,227.162 256.811 C 227.354 257.121,234.626 253.487,234.626 253.080 C 234.626 252.932,229.017 241.860,222.161 228.477 C 209.534 203.827,209.406 203.570,210.067 204.119 C 210.434 204.423,211.625 203.413,222.438 193.621 C 223.733 192.448,225.555 190.817,226.488 189.997 C 227.421 189.176,229.843 187.008,231.870 185.180 C 233.898 183.352,236.672 180.864,238.035 179.651 L 240.514 177.446 241.102 178.193 C 241.425 178.604,242.375 180.282,243.213 181.922 C 244.051 183.561,244.799 184.965,244.875 185.042 C 244.952 185.118,245.334 185.803,245.724 186.565 C 246.115 187.327,247.580 190.026,248.979 192.564 C 250.379 195.102,251.524 197.255,251.524 197.348 C 251.524 197.442,251.817 197.984,252.176 198.552 C 252.534 199.120,254.235 202.202,255.956 205.402 C 260.407 213.677,260.615 214.060,263.312 218.975 C 264.650 221.413,266.111 224.155,266.559 225.069 C 267.007 225.983,267.410 226.770,267.453 226.818 C 267.497 226.866,269.226 225.983,271.296 224.856 L 275.058 222.806 274.297 221.583 C 273.878 220.910,273.384 220.016,273.199 219.596 C 273.014 219.176,271.844 216.995,270.599 214.749 C 269.354 212.503,267.380 208.857,266.212 206.648 C 265.045 204.439,263.070 200.817,261.823 198.598 C 260.577 196.380,259.557 194.427,259.557 194.258 C 259.557 194.090,259.463 193.910,259.349 193.860 C 259.235 193.809,258.801 193.082,258.385 192.244 C 257.970 191.406,256.991 189.598,256.210 188.227 C 255.429 186.856,254.162 184.488,253.393 182.964 C 252.625 181.440,251.922 180.132,251.830 180.055 C 251.737 179.979,251.461 179.543,251.216 179.086 C 250.971 178.629,249.818 176.498,248.654 174.352 C 247.490 172.205,246.537 170.304,246.537 170.127 C 246.537 169.951,246.436 169.806,246.312 169.806 C 246.188 169.806,245.865 169.339,245.595 168.767 C 245.038 167.587,238.503 155.476,234.946 149.030 C 233.643 146.669,232.055 143.724,231.418 142.486 C 229.655 139.059,227.662 135.398,227.139 134.626 C 226.880 134.245,225.640 131.939,224.381 129.501 C 223.123 127.064,221.878 124.758,221.615 124.377 C 221.352 123.996,220.658 122.765,220.072 121.641 L 219.009 119.598 218.477 120.255 C 218.184 120.616,217.743 121.377,217.497 121.946 C 217.250 122.515,216.877 123.046,216.668 123.127 C 216.348 123.250,213.734 122.068,213.296 121.602 C 213.220 121.521,212.566 121.146,211.842 120.769 C 211.118 120.392,210.526 119.990,210.526 119.876 C 210.526 119.761,210.339 119.668,210.111 119.668 C 209.882 119.668,209.695 119.788,209.695 119.936 " stroke="none" fill="#155cb1" fill-rule="evenodd"></path><path id="path1" d="M201.186 20.703 C 201.914 20.760,203.036 20.759,203.679 20.701 C 204.322 20.643,203.726 20.596,202.355 20.597 C 200.983 20.598,200.457 20.645,201.186 20.703 M196.884 20.976 C 197.379 21.037,198.189 21.037,198.684 20.976 C 199.179 20.915,198.774 20.864,197.784 20.864 C 196.794 20.864,196.389 20.915,196.884 20.976 M213.786 21.253 C 214.284 21.315,215.032 21.314,215.448 21.251 C 215.864 21.187,215.457 21.137,214.543 21.138 C 213.629 21.140,213.288 21.192,213.786 21.253 M195.014 29.815 C 177.704 30.512,158.082 34.348,145.014 39.588 C 144.709 39.710,142.465 40.581,140.028 41.523 C 111.045 52.721,83.339 75.571,66.438 102.216 C 59.232 113.577,52.447 127.844,49.643 137.535 C 49.467 138.144,48.877 140.076,48.333 141.828 C 38.875 172.267,40.616 209.839,52.909 240.582 C 53.660 242.460,57.498 250.826,58.818 253.463 C 59.467 254.758,60.958 257.471,62.132 259.493 C 63.306 261.514,64.266 263.291,64.266 263.440 C 64.266 263.590,64.362 263.712,64.479 263.712 C 64.597 263.712,64.999 264.273,65.374 264.958 C 65.748 265.644,66.151 266.205,66.268 266.205 C 66.386 266.205,66.482 266.327,66.482 266.477 C 66.482 268.019,80.671 286.130,85.090 290.228 L 85.754 290.844 89.207 285.435 C 91.106 282.460,93.750 278.342,95.083 276.283 C 96.416 274.224,97.507 272.494,97.507 272.438 C 97.507 272.382,98.348 271.044,99.377 269.465 C 100.405 267.885,101.398 266.350,101.584 266.053 C 102.569 264.476,105.876 259.285,107.753 256.371 C 110.913 251.465,114.861 245.304,116.832 242.203 C 117.786 240.702,120.076 237.105,121.921 234.211 C 123.766 231.316,125.416 228.698,125.588 228.393 C 125.760 228.089,125.975 227.777,126.067 227.701 C 126.158 227.625,126.393 227.259,126.589 226.887 C 126.785 226.516,127.057 226.080,127.195 225.918 C 127.332 225.756,129.059 223.068,131.031 219.945 C 133.004 216.821,135.622 212.708,136.850 210.803 C 141.828 203.081,149.954 190.337,151.333 188.089 C 151.941 187.098,153.043 185.390,153.781 184.292 C 154.520 183.195,155.125 182.177,155.125 182.030 C 155.125 181.884,155.221 181.722,155.339 181.671 C 155.457 181.620,156.728 179.709,158.163 177.424 C 159.598 175.139,161.621 171.983,162.658 170.411 C 163.695 168.839,164.543 167.500,164.543 167.436 C 164.543 167.371,165.461 165.915,166.583 164.199 C 170.148 158.750,173.569 153.340,173.748 152.870 C 173.980 152.259,181.148 148.627,181.476 148.955 C 181.614 149.094,183.546 152.751,185.768 157.083 C 190.129 165.585,194.028 173.182,198.414 181.717 C 199.941 184.688,202.241 189.207,203.526 191.759 C 206.131 196.932,206.027 196.848,207.766 195.220 C 208.457 194.573,210.076 193.109,211.364 191.967 C 215.010 188.731,215.135 188.619,224.391 180.297 C 229.198 175.974,233.849 171.808,234.727 171.039 L 236.324 169.641 231.699 161.067 C 229.155 156.351,226.343 151.216,225.448 149.654 C 224.554 148.093,223.823 146.740,223.823 146.649 C 223.823 146.474,220.399 140.122,219.232 138.132 C 218.861 137.499,217.933 135.757,217.171 134.260 C 216.408 132.764,215.030 130.234,214.108 128.637 C 211.369 123.892,208.810 118.765,209.092 118.587 C 209.458 118.356,211.250 115.317,214.295 109.765 C 214.692 109.041,215.110 108.324,215.225 108.172 C 215.339 108.019,215.810 107.209,216.271 106.371 C 216.733 105.533,217.604 103.975,218.207 102.909 C 218.811 101.842,220.149 99.474,221.180 97.645 C 222.212 95.817,223.727 93.158,224.547 91.737 C 225.368 90.316,226.039 89.048,226.039 88.921 C 226.039 88.793,226.133 88.647,226.249 88.596 C 226.364 88.546,226.887 87.694,227.410 86.704 C 227.933 85.713,228.976 83.843,229.728 82.548 C 231.896 78.818,232.165 78.345,233.048 76.731 C 233.866 75.238,235.570 72.212,236.600 70.429 C 239.690 65.074,242.152 60.619,242.058 60.549 C 242.008 60.512,240.097 60.329,237.812 60.142 C 231.054 59.591,230.997 59.580,229.986 58.571 C 227.709 56.299,228.664 54.937,235.042 51.367 C 236.938 50.305,237.845 49.777,238.089 49.595 C 238.241 49.481,239.051 49.013,239.889 48.557 C 242.532 47.116,244.085 46.241,247.645 44.185 C 251.351 42.046,254.049 40.541,255.053 40.053 C 256.015 39.585,255.865 39.468,252.978 38.433 C 236.539 32.544,213.242 29.080,195.014 29.815 M260.860 44.021 C 260.891 45.481,261.063 52.430,261.242 59.464 L 261.568 72.251 260.973 73.086 C 259.634 74.967,257.343 74.885,255.749 72.901 C 255.177 72.189,254.641 71.544,254.557 71.468 C 254.474 71.392,253.419 69.926,252.213 68.210 C 249.764 64.725,249.777 64.730,248.779 66.635 C 248.384 67.389,247.989 68.068,247.900 68.144 C 247.812 68.220,247.240 69.217,246.629 70.360 C 246.018 71.503,245.124 73.098,244.643 73.904 C 244.161 74.711,243.767 75.439,243.767 75.523 C 243.767 75.607,243.537 76.007,243.256 76.412 C 242.975 76.816,242.303 77.957,241.763 78.947 C 241.223 79.938,239.818 82.431,238.641 84.488 C 237.463 86.544,236.120 88.913,235.656 89.751 C 235.192 90.589,234.069 92.583,233.160 94.183 C 231.568 96.985,231.176 97.670,229.871 99.931 C 229.542 100.502,228.716 101.967,228.038 103.186 C 225.399 107.925,224.871 108.853,223.584 111.023 C 223.106 111.830,222.715 112.537,222.715 112.594 C 222.715 112.652,222.091 113.778,221.330 115.097 C 220.568 116.416,219.945 117.559,219.945 117.637 C 219.945 117.716,219.695 118.097,219.389 118.486 C 219.038 118.932,218.926 119.305,219.084 119.499 C 219.317 119.786,222.499 125.565,225.200 130.609 C 228.308 136.411,230.312 140.089,230.711 140.720 C 230.951 141.101,231.120 141.506,231.087 141.620 C 231.053 141.735,231.119 141.828,231.234 141.828 C 231.349 141.828,231.621 142.233,231.838 142.729 C 232.210 143.577,235.729 150.103,237.093 152.473 C 237.437 153.071,238.660 155.377,239.811 157.598 C 240.962 159.818,242.124 161.948,242.393 162.332 C 242.662 162.716,243.784 164.773,244.885 166.903 C 245.986 169.033,247.667 172.147,248.619 173.823 C 249.572 175.499,251.095 178.303,252.004 180.055 C 252.914 181.807,253.942 183.740,254.289 184.349 C 255.500 186.473,257.534 190.186,259.070 193.075 C 262.608 199.729,266.473 206.808,266.729 207.103 C 266.879 207.278,266.945 207.478,266.874 207.549 C 266.803 207.619,266.936 207.835,267.168 208.028 C 267.400 208.220,267.590 208.494,267.590 208.635 C 267.590 208.776,268.671 210.849,269.993 213.241 C 272.949 218.591,275.069 222.642,275.069 222.941 C 275.069 223.065,274.103 223.641,272.922 224.221 C 271.742 224.801,270.063 225.691,269.192 226.198 L 267.608 227.119 267.081 226.371 C 266.792 225.960,266.468 225.344,266.362 225.002 C 266.256 224.660,266.021 224.218,265.841 224.020 C 265.660 223.822,265.014 222.677,264.404 221.477 C 263.795 220.277,262.755 218.350,262.092 217.196 C 261.430 216.041,260.012 213.414,258.942 211.357 C 257.871 209.301,256.281 206.371,255.408 204.848 C 254.535 203.324,252.819 200.145,251.595 197.784 C 250.370 195.422,248.950 192.796,248.438 191.948 C 247.926 191.099,247.008 189.416,246.399 188.208 C 245.789 187.000,245.219 185.949,245.132 185.873 C 245.045 185.796,244.882 185.485,244.770 185.180 C 244.658 184.875,243.670 183.043,242.574 181.108 L 240.582 177.590 239.751 178.360 C 238.962 179.092,228.439 188.533,217.590 198.243 C 214.848 200.697,212.117 203.152,211.522 203.697 C 210.927 204.243,210.310 204.608,210.152 204.510 C 209.993 204.412,210.283 205.071,210.796 205.975 C 211.310 206.878,213.126 210.360,214.832 213.712 C 217.789 219.523,218.792 221.479,225.550 234.626 C 233.242 249.589,234.903 252.877,234.903 253.141 C 234.903 253.974,227.652 257.104,226.732 256.667 C 225.397 256.033,205.178 247.444,202.770 246.487 C 200.427 245.556,199.726 245.258,197.376 244.191 C 196.466 243.777,194.971 243.154,194.052 242.804 C 193.134 242.455,189.765 241.048,186.565 239.677 C 183.366 238.306,177.445 235.791,173.407 234.090 C 169.370 232.388,165.817 230.890,165.512 230.761 C 165.208 230.633,164.522 230.338,163.989 230.106 C 163.456 229.874,162.084 229.314,160.942 228.861 C 159.799 228.408,158.116 227.700,157.202 227.286 C 154.950 226.269,155.244 226.394,148.061 223.389 C 144.557 221.924,141.565 220.624,141.413 220.500 C 141.245 220.364,140.437 221.386,139.365 223.088 C 137.224 226.489,136.198 228.070,136.012 228.255 C 135.935 228.331,135.732 228.643,135.560 228.947 C 135.168 229.643,129.321 238.843,126.229 243.629 C 124.950 245.609,123.441 247.978,122.875 248.892 C 122.309 249.806,121.263 251.455,120.549 252.557 C 119.836 253.658,118.324 256.027,117.189 257.820 C 116.055 259.613,114.236 262.452,113.148 264.127 C 112.060 265.803,110.433 268.359,109.533 269.806 C 108.632 271.253,107.800 272.562,107.683 272.715 C 107.565 272.867,106.763 274.114,105.900 275.485 C 105.037 276.856,103.685 278.975,102.896 280.194 C 101.129 282.924,97.210 289.060,95.870 291.197 C 95.323 292.069,94.268 293.729,93.526 294.887 L 92.177 296.991 92.972 297.830 C 95.219 300.201,105.246 308.085,110.526 311.633 C 130.064 324.760,151.095 333.009,175.485 337.114 C 201.565 341.503,237.252 337.619,259.247 327.998 C 260.560 327.424,262.867 326.480,264.373 325.899 C 265.879 325.319,269.183 323.782,271.714 322.484 C 274.245 321.186,277.141 319.719,278.150 319.223 C 296.910 310.009,320.117 288.688,333.444 268.421 C 334.296 267.126,335.222 265.729,335.502 265.316 C 335.782 264.903,336.011 264.490,336.011 264.397 C 336.011 264.305,336.307 263.832,336.668 263.347 C 339.243 259.892,347.320 243.536,348.730 238.920 C 348.917 238.310,349.185 237.531,349.327 237.188 C 349.849 235.925,350.090 235.296,350.416 234.349 C 350.599 233.816,350.850 233.130,350.973 232.825 C 353.619 226.300,357.539 207.601,358.289 197.922 C 358.371 196.856,358.521 195.048,358.622 193.906 C 359.413 184.907,358.455 168.411,356.507 157.479 C 356.181 155.651,355.852 153.781,355.776 153.324 C 355.700 152.867,355.462 151.965,355.247 151.320 C 355.033 150.675,354.787 149.740,354.702 149.242 C 354.617 148.745,354.437 147.964,354.303 147.507 C 354.168 147.050,353.470 144.557,352.752 141.967 C 351.605 137.832,350.072 133.121,349.327 131.440 C 349.191 131.136,348.623 129.702,348.064 128.255 C 346.681 124.677,344.530 119.838,343.171 117.243 C 342.553 116.062,341.231 113.539,340.232 111.634 C 337.382 106.197,330.115 94.983,327.218 91.551 C 327.090 91.399,325.994 90.028,324.784 88.504 C 318.784 80.949,309.954 72.054,302.493 66.050 C 290.232 56.182,276.792 48.049,263.712 42.582 L 260.803 41.366 260.860 44.021 M306.787 57.792 C 306.939 57.926,307.562 58.471,308.171 59.004 L 309.279 59.972 308.448 59.048 C 307.991 58.540,307.368 57.995,307.064 57.837 C 306.759 57.679,306.634 57.659,306.787 57.792 M314.127 64.076 C 314.127 64.123,314.533 64.528,315.028 64.976 L 315.928 65.789 315.114 64.889 C 314.356 64.050,314.127 63.862,314.127 64.076 M325.623 75.623 C 326.218 76.233,326.768 76.731,326.844 76.731 C 326.920 76.731,326.495 76.233,325.900 75.623 C 325.305 75.014,324.756 74.515,324.680 74.515 C 324.604 74.515,325.028 75.014,325.623 75.623 M176.530 164.889 C 175.617 166.298,173.914 168.947,172.744 170.776 C 171.575 172.604,169.500 175.820,168.134 177.923 C 166.768 180.026,165.651 181.802,165.651 181.870 C 165.651 181.937,164.822 183.271,163.808 184.833 C 159.999 190.704,158.632 192.837,154.445 199.446 C 152.080 203.179,150.019 206.420,149.866 206.648 C 148.513 208.662,146.333 212.137,146.198 212.496 C 146.062 212.858,147.423 213.533,153.417 216.076 C 164.346 220.713,175.389 225.363,178.532 226.651 C 180.055 227.276,182.112 228.154,183.102 228.602 C 184.093 229.050,185.152 229.522,185.457 229.650 C 186.902 230.258,197.177 234.556,202.632 236.835 C 205.983 238.235,209.037 239.543,209.418 239.743 C 209.799 239.942,211.233 240.559,212.604 241.115 C 213.975 241.670,215.346 242.230,215.651 242.359 C 219.491 243.987,220.323 244.312,220.414 244.221 C 220.472 244.163,217.168 237.586,213.071 229.606 C 208.975 221.626,204.710 213.289,203.595 211.080 C 202.480 208.871,201.495 207.001,201.407 206.925 C 201.319 206.849,200.077 204.418,198.648 201.524 C 197.219 198.629,195.859 196.042,195.627 195.776 C 195.395 195.509,195.318 195.289,195.456 195.287 C 195.594 195.284,195.582 195.191,195.429 195.079 C 195.277 194.967,193.972 192.507,192.530 189.612 C 191.088 186.717,189.747 184.183,189.550 183.980 C 189.353 183.778,189.256 183.508,189.334 183.381 C 189.413 183.254,189.383 183.108,189.268 183.057 C 189.152 183.006,188.022 180.907,186.756 178.393 C 185.489 175.880,183.149 171.236,181.555 168.075 C 179.962 164.913,178.552 162.327,178.424 162.327 C 178.295 162.327,177.443 163.480,176.530 164.889 M367.377 171.468 C 367.377 172.001,367.434 172.220,367.504 171.953 C 367.574 171.686,367.574 171.250,367.504 170.983 C 367.434 170.717,367.377 170.935,367.377 171.468 M33.330 177.562 C 33.330 178.553,33.380 178.958,33.441 178.463 C 33.503 177.967,33.503 177.157,33.441 176.662 C 33.380 176.167,33.330 176.572,33.330 177.562 M367.970 184.211 C 367.970 185.810,368.015 186.465,368.071 185.665 C 368.127 184.865,368.127 183.556,368.071 182.756 C 368.015 181.956,367.970 182.611,367.970 184.211 M33.327 191.551 C 33.328 192.465,33.380 192.806,33.442 192.308 C 33.503 191.810,33.502 191.062,33.439 190.646 C 33.376 190.230,33.325 190.637,33.327 191.551 M367.377 197.507 C 367.377 198.040,367.434 198.258,367.504 197.992 C 367.574 197.725,367.574 197.289,367.504 197.022 C 367.434 196.756,367.377 196.974,367.377 197.507 M73.684 291.274 C 74.201 291.807,74.686 292.244,74.762 292.244 C 74.839 292.244,74.478 291.807,73.961 291.274 C 73.444 290.741,72.959 290.305,72.883 290.305 C 72.807 290.305,73.167 290.741,73.684 291.274 M76.039 293.906 C 76.634 294.515,77.183 295.014,77.259 295.014 C 77.335 295.014,76.911 294.515,76.316 293.906 C 75.721 293.296,75.171 292.798,75.095 292.798 C 75.019 292.798,75.444 293.296,76.039 293.906 M197.299 348.121 C 197.718 348.184,198.404 348.184,198.823 348.121 C 199.242 348.057,198.899 348.005,198.061 348.005 C 197.223 348.005,196.880 348.057,197.299 348.121 " stroke="none" fill="#fbfbfb" fill-rule="evenodd"></path><path id="path2" d="M255.125 40.099 C 255.125 40.214,254.720 40.484,254.224 40.700 C 253.729 40.915,253.262 41.165,253.186 41.256 C 253.109 41.346,252.455 41.719,251.731 42.083 C 251.008 42.448,250.416 42.821,250.416 42.912 C 250.416 43.003,250.016 43.255,249.528 43.471 C 249.040 43.687,247.375 44.590,245.828 45.478 C 244.281 46.365,242.873 47.091,242.699 47.091 C 242.525 47.091,242.382 47.216,242.382 47.368 C 242.382 47.521,242.195 47.645,241.967 47.645 C 241.738 47.645,241.551 47.770,241.551 47.922 C 241.551 48.075,241.302 48.199,240.997 48.199 C 240.693 48.199,240.443 48.310,240.443 48.444 C 240.443 48.579,240.225 48.758,239.958 48.843 C 239.484 48.993,237.947 49.865,237.673 50.139 C 237.597 50.215,236.849 50.635,236.011 51.072 C 230.579 53.908,229.363 54.909,229.363 56.546 C 229.363 58.900,230.391 59.361,236.704 59.835 C 240.128 60.092,242.382 60.394,242.382 60.594 C 242.382 60.786,240.895 63.546,240.702 63.712 C 240.613 63.788,240.238 64.411,239.869 65.097 C 239.499 65.783,239.131 66.406,239.052 66.482 C 238.919 66.608,237.924 68.459,236.444 71.330 C 236.130 71.939,235.810 72.500,235.734 72.576 C 235.658 72.652,235.440 72.995,235.249 73.338 C 235.059 73.681,234.747 74.242,234.557 74.584 C 234.366 74.927,234.134 75.270,234.041 75.346 C 233.947 75.422,233.372 76.420,232.762 77.562 C 232.153 78.705,231.193 80.450,230.630 81.440 C 230.068 82.431,229.538 83.459,229.453 83.726 C 229.368 83.992,229.188 84.211,229.054 84.211 C 228.919 84.211,228.809 84.460,228.809 84.765 C 228.809 85.069,228.705 85.319,228.579 85.319 C 228.452 85.319,228.172 85.660,227.955 86.077 C 227.739 86.494,227.116 87.585,226.570 88.501 C 226.025 89.417,225.402 90.571,225.187 91.066 C 224.972 91.562,224.701 91.967,224.586 91.967 C 224.471 91.967,224.377 92.216,224.377 92.521 C 224.377 92.825,224.272 93.075,224.143 93.075 C 224.015 93.075,223.610 93.667,223.243 94.391 C 222.876 95.114,222.483 95.748,222.368 95.799 C 222.254 95.849,222.161 96.130,222.161 96.422 C 222.161 96.714,222.051 96.953,221.916 96.953 C 221.782 96.953,221.341 97.607,220.936 98.407 C 220.532 99.207,219.699 100.734,219.086 101.801 C 218.473 102.867,217.902 103.958,217.818 104.224 C 217.733 104.491,217.554 104.709,217.419 104.709 C 217.285 104.709,217.175 104.958,217.175 105.263 C 217.175 105.568,217.071 105.817,216.944 105.817 C 216.818 105.817,216.542 106.160,216.331 106.579 C 216.120 106.998,215.744 107.652,215.494 108.033 C 215.245 108.414,214.492 109.785,213.823 111.080 C 213.153 112.375,212.542 113.497,212.466 113.573 C 212.192 113.846,211.320 115.383,211.169 115.859 C 211.085 116.125,210.906 116.343,210.771 116.343 C 210.636 116.343,210.526 116.593,210.526 116.898 C 210.526 117.202,210.422 117.452,210.294 117.452 C 209.859 117.452,209.354 118.903,209.712 119.124 C 209.948 119.270,209.933 119.364,209.657 119.474 C 209.450 119.556,209.716 119.636,210.249 119.650 C 210.982 119.670,211.117 119.742,210.803 119.945 C 210.467 120.162,210.507 120.214,211.011 120.217 C 211.354 120.220,211.634 120.346,211.634 120.499 C 211.634 120.651,211.884 120.776,212.188 120.776 C 212.493 120.776,212.742 120.900,212.742 121.053 C 212.742 121.205,212.992 121.330,213.296 121.330 C 213.601 121.330,213.850 121.454,213.850 121.607 C 213.850 121.759,214.072 121.884,214.343 121.884 C 214.614 121.884,215.016 122.133,215.235 122.438 C 215.899 123.358,217.169 122.873,217.179 121.696 C 217.182 121.269,217.224 121.255,217.452 121.607 C 217.669 121.943,217.721 121.903,217.724 121.399 C 217.727 121.056,217.853 120.776,218.006 120.776 C 218.158 120.776,218.283 120.526,218.283 120.222 C 218.283 119.917,218.407 119.668,218.560 119.668 C 218.712 119.668,218.837 119.443,218.837 119.169 C 218.837 118.895,218.949 118.552,219.087 118.407 C 219.350 118.132,220.181 116.696,221.165 114.820 C 221.484 114.211,221.820 113.650,221.912 113.573 C 222.005 113.497,222.503 112.625,223.021 111.634 C 223.538 110.644,224.035 109.771,224.125 109.695 C 224.215 109.619,224.838 108.497,225.510 107.202 C 226.181 105.907,226.793 104.785,226.870 104.709 C 227.290 104.294,228.809 101.566,228.809 101.228 C 228.809 101.010,228.904 100.831,229.020 100.831 C 229.135 100.831,229.664 99.990,230.195 98.961 C 230.725 97.933,231.223 97.029,231.300 96.953 C 231.422 96.832,231.797 96.163,233.082 93.767 C 233.246 93.463,233.442 93.151,233.518 93.075 C 233.775 92.817,234.640 91.281,235.115 90.235 C 235.375 89.664,235.683 89.197,235.799 89.197 C 235.916 89.197,236.011 88.947,236.011 88.643 C 236.011 88.338,236.111 88.089,236.234 88.089 C 236.356 88.089,236.761 87.467,237.134 86.708 C 237.507 85.949,237.905 85.325,238.019 85.323 C 238.134 85.320,238.227 85.130,238.227 84.899 C 238.227 84.409,238.719 83.497,239.404 82.718 C 239.671 82.415,239.889 82.079,239.889 81.971 C 239.889 81.862,240.388 80.953,240.997 79.950 C 241.607 78.947,242.108 78.031,242.111 77.914 C 242.115 77.797,242.361 77.389,242.659 77.008 C 242.957 76.627,243.204 76.098,243.207 75.831 C 243.211 75.564,243.307 75.346,243.422 75.346 C 243.536 75.346,243.938 74.754,244.315 74.030 C 244.692 73.307,245.077 72.652,245.171 72.576 C 245.264 72.500,245.881 71.440,246.540 70.222 C 247.200 69.003,248.035 67.507,248.397 66.898 C 248.759 66.288,249.126 65.571,249.213 65.305 C 249.394 64.754,250.414 64.637,250.419 65.166 C 250.421 65.357,250.675 65.824,250.984 66.205 C 251.293 66.586,252.545 68.269,253.767 69.945 C 257.085 74.494,257.737 74.935,259.639 73.917 C 261.269 73.045,261.236 73.451,260.934 57.761 C 260.604 40.674,260.633 40.999,259.468 40.993 C 258.797 40.990,258.686 40.925,259.003 40.720 C 259.315 40.518,259.178 40.450,258.449 40.443 C 257.720 40.437,257.582 40.368,257.895 40.166 C 258.190 39.976,257.848 39.896,256.717 39.893 C 255.841 39.891,255.125 39.983,255.125 40.099 M173.380 153.878 C 172.713 155.182,172.190 156.040,171.814 156.450 C 171.624 156.657,171.468 156.923,171.468 157.040 C 171.468 157.158,171.157 157.617,170.776 158.059 C 170.395 158.502,170.084 159.010,170.083 159.187 C 170.083 159.365,169.968 159.552,169.827 159.603 C 169.686 159.654,169.530 159.882,169.481 160.111 C 169.431 160.339,169.319 160.589,169.231 160.665 C 168.967 160.895,166.759 164.224,166.759 164.392 C 166.759 164.479,166.260 165.280,165.651 166.172 C 165.042 167.065,164.543 167.926,164.543 168.085 C 164.543 168.245,164.437 168.416,164.308 168.467 C 164.093 168.552,163.605 169.278,160.572 174.026 C 160.013 174.900,159.557 175.741,159.557 175.896 C 159.557 176.051,159.447 176.177,159.313 176.177 C 159.180 176.177,158.915 176.551,158.726 177.008 C 158.536 177.465,158.292 177.839,158.183 177.839 C 158.073 177.839,157.840 178.156,157.663 178.542 C 157.487 178.929,157.214 179.396,157.055 179.581 C 156.654 180.049,154.017 184.181,154.017 184.341 C 154.017 184.413,153.269 185.581,152.355 186.936 C 151.440 188.291,150.693 189.484,150.693 189.587 C 150.693 189.690,150.565 189.925,150.410 190.109 C 149.842 190.781,147.922 193.932,147.922 194.192 C 147.922 194.339,147.806 194.460,147.664 194.460 C 147.522 194.460,147.331 194.694,147.241 194.980 C 147.150 195.266,146.768 195.858,146.391 196.296 C 146.015 196.733,145.707 197.247,145.707 197.438 C 145.707 197.628,145.597 197.784,145.463 197.784 C 145.329 197.784,145.065 198.158,144.875 198.615 C 144.686 199.072,144.453 199.446,144.356 199.446 C 144.260 199.446,143.872 200.038,143.493 200.762 C 143.113 201.485,142.584 202.319,142.316 202.615 C 142.048 202.910,141.828 203.315,141.828 203.515 C 141.828 203.715,141.704 203.878,141.551 203.878 C 141.399 203.878,141.274 204.000,141.274 204.150 C 141.274 204.299,140.669 205.328,139.929 206.435 C 139.189 207.543,138.425 208.753,138.230 209.124 C 138.035 209.495,137.769 209.931,137.638 210.093 C 137.000 210.887,132.394 218.073,132.337 218.364 C 132.301 218.548,132.194 218.760,132.100 218.837 C 132.005 218.913,131.290 219.972,130.510 221.191 C 129.730 222.410,128.968 223.556,128.816 223.737 C 128.665 223.918,128.280 224.532,127.960 225.100 C 127.641 225.669,126.891 226.854,126.294 227.733 C 125.696 228.613,125.208 229.464,125.208 229.625 C 125.208 229.785,125.104 229.917,124.978 229.917 C 124.851 229.917,124.572 230.260,124.358 230.679 C 124.144 231.098,123.205 232.625,122.271 234.072 C 121.338 235.519,119.871 237.793,119.013 239.125 C 118.154 240.457,117.452 241.672,117.452 241.826 C 117.452 241.979,117.348 242.105,117.221 242.105 C 117.095 242.105,116.814 242.448,116.598 242.867 C 116.382 243.286,116.080 243.776,115.928 243.956 C 115.776 244.136,115.028 245.300,114.266 246.541 C 113.504 247.783,112.413 249.531,111.842 250.426 C 111.271 251.321,110.803 252.173,110.803 252.320 C 110.803 252.466,110.698 252.627,110.568 252.678 C 110.354 252.762,109.865 253.489,106.832 258.237 C 106.274 259.110,105.817 259.952,105.817 260.107 C 105.817 260.261,105.714 260.388,105.587 260.388 C 105.460 260.388,105.180 260.731,104.964 261.150 C 104.748 261.569,104.352 262.153,104.086 262.448 C 103.819 262.744,103.601 263.092,103.601 263.222 C 103.601 263.352,103.472 263.609,103.314 263.793 C 102.724 264.481,100.831 267.577,100.831 267.855 C 100.831 268.014,100.727 268.144,100.601 268.144 C 100.474 268.144,100.194 268.487,99.978 268.906 C 99.761 269.325,99.486 269.792,99.367 269.945 C 98.726 270.759,96.953 273.701,96.953 273.949 C 96.953 274.108,96.849 274.238,96.723 274.238 C 96.596 274.238,96.316 274.581,96.100 275.000 C 95.884 275.419,95.642 275.824,95.561 275.900 C 95.481 275.976,94.987 276.756,94.464 277.632 C 93.940 278.508,93.413 279.224,93.293 279.224 C 93.173 279.224,93.075 279.463,93.075 279.755 C 93.075 280.047,92.974 280.328,92.851 280.379 C 92.588 280.487,91.167 282.538,90.364 283.966 C 89.234 285.978,89.052 286.274,88.712 286.643 C 88.521 286.851,88.366 287.117,88.366 287.234 C 88.366 287.352,88.054 287.811,87.673 288.253 C 87.293 288.696,86.981 289.214,86.981 289.404 C 86.981 289.595,86.876 289.751,86.748 289.751 C 86.620 289.751,86.372 290.066,86.197 290.450 C 85.842 291.229,89.452 295.286,90.508 295.295 C 90.925 295.299,90.936 295.339,90.582 295.568 C 90.252 295.781,90.309 295.838,90.859 295.845 C 91.408 295.852,91.465 295.909,91.136 296.122 C 90.817 296.328,90.917 296.391,91.562 296.395 C 92.293 296.398,92.529 296.190,93.357 294.806 C 94.655 292.637,96.885 289.133,97.228 288.722 C 97.383 288.538,97.653 288.070,97.830 287.684 C 98.006 287.297,98.255 286.981,98.382 286.981 C 98.510 286.981,98.615 286.849,98.615 286.688 C 98.615 286.528,99.114 285.662,99.723 284.765 C 100.332 283.867,100.831 283.001,100.831 282.841 C 100.831 282.680,100.925 282.548,101.039 282.548 C 101.154 282.548,101.556 281.956,101.933 281.233 C 102.310 280.509,102.693 279.855,102.786 279.778 C 103.051 279.559,105.817 275.389,105.817 275.209 C 105.817 275.119,105.944 274.895,106.100 274.711 C 106.668 274.039,108.587 270.888,108.587 270.628 C 108.587 270.481,108.712 270.360,108.864 270.360 C 109.017 270.360,109.141 270.168,109.141 269.933 C 109.141 269.698,109.388 269.241,109.690 268.917 C 109.991 268.594,110.530 267.882,110.888 267.336 C 112.828 264.373,113.573 263.138,113.573 262.885 C 113.573 262.730,113.683 262.604,113.817 262.604 C 113.951 262.604,114.215 262.230,114.404 261.773 C 114.594 261.316,114.858 260.942,114.992 260.942 C 115.126 260.942,115.235 260.750,115.235 260.515 C 115.235 260.280,115.485 259.820,115.789 259.493 C 116.094 259.166,116.343 258.735,116.343 258.535 C 116.343 258.335,116.442 258.172,116.562 258.172 C 116.682 258.172,117.211 257.455,117.737 256.579 C 118.263 255.703,118.788 254.945,118.903 254.894 C 119.019 254.843,119.114 254.680,119.114 254.532 C 119.114 254.384,119.612 253.529,120.222 252.632 C 120.831 251.734,121.330 250.879,121.330 250.731 C 121.330 250.583,121.442 250.420,121.580 250.369 C 121.792 250.291,123.516 247.627,124.950 245.163 C 125.168 244.788,125.494 244.320,125.674 244.123 C 125.855 243.925,126.081 243.515,126.178 243.212 C 126.274 242.908,126.469 242.659,126.611 242.659 C 126.754 242.659,126.870 242.420,126.870 242.128 C 126.870 241.836,126.973 241.556,127.099 241.505 C 127.420 241.376,130.194 237.207,130.194 236.855 C 130.194 236.695,130.288 236.565,130.402 236.565 C 130.517 236.565,130.921 235.973,131.300 235.249 C 131.679 234.526,132.208 233.692,132.476 233.397 C 132.745 233.101,132.964 232.696,132.964 232.496 C 132.964 232.296,133.068 232.133,133.194 232.133 C 133.321 232.133,133.601 231.790,133.817 231.371 C 134.034 230.952,134.429 230.368,134.695 230.072 C 134.962 229.777,135.180 229.443,135.180 229.331 C 135.180 229.219,135.803 228.185,136.565 227.035 C 137.327 225.885,137.950 224.816,137.950 224.660 C 137.950 224.504,138.060 224.377,138.194 224.377 C 138.327 224.377,138.592 224.003,138.781 223.546 C 138.970 223.089,139.214 222.715,139.322 222.715 C 139.430 222.715,139.692 222.372,139.903 221.953 C 140.115 221.534,140.634 220.670,141.058 220.033 C 141.482 219.396,141.828 218.742,141.828 218.579 C 141.828 218.416,141.953 218.283,142.105 218.283 C 142.258 218.283,142.382 218.033,142.382 217.729 C 142.382 217.424,142.507 217.175,142.659 217.175 C 142.812 217.175,142.936 216.801,142.936 216.343 C 142.936 215.886,143.061 215.512,143.213 215.512 C 143.366 215.512,143.490 215.263,143.490 214.958 C 143.490 214.654,143.615 214.404,143.767 214.404 C 143.920 214.404,144.044 214.209,144.044 213.969 C 144.044 213.380,144.721 212.742,145.347 212.742 C 145.655 212.742,146.075 212.330,146.405 211.704 C 146.706 211.132,147.171 210.423,147.438 210.128 C 147.704 209.832,147.922 209.499,147.922 209.386 C 147.922 209.274,148.546 208.241,149.307 207.090 C 150.069 205.940,150.693 204.929,150.693 204.843 C 150.693 204.662,151.778 203.097,152.278 202.557 C 152.465 202.355,152.835 201.729,153.100 201.164 C 153.366 200.600,153.805 199.897,154.077 199.602 C 154.348 199.306,154.571 198.901,154.571 198.701 C 154.571 198.501,154.680 198.338,154.814 198.338 C 154.948 198.338,155.212 197.964,155.402 197.507 C 155.591 197.050,155.835 196.676,155.945 196.676 C 156.054 196.676,156.288 196.360,156.464 195.973 C 156.640 195.586,156.912 195.119,157.068 194.934 C 157.637 194.262,159.557 191.110,159.557 190.849 C 159.557 190.702,159.681 190.582,159.834 190.582 C 159.986 190.582,160.111 190.450,160.111 190.290 C 160.111 190.129,160.609 189.263,161.219 188.366 C 161.828 187.468,162.327 186.660,162.327 186.569 C 162.327 186.478,162.576 186.136,162.881 185.809 C 163.186 185.482,163.435 185.051,163.435 184.851 C 163.435 184.651,163.544 184.488,163.678 184.488 C 163.812 184.488,164.077 184.114,164.266 183.657 C 164.455 183.199,164.689 182.825,164.785 182.825 C 164.881 182.825,165.270 182.233,165.649 181.510 C 166.028 180.786,166.557 179.952,166.825 179.657 C 167.094 179.362,167.313 178.956,167.313 178.757 C 167.313 178.557,167.418 178.393,167.546 178.393 C 167.675 178.393,168.066 177.838,168.415 177.159 C 168.764 176.480,169.282 175.675,169.566 175.370 C 169.851 175.065,170.083 174.741,170.083 174.650 C 170.083 174.559,170.582 173.751,171.191 172.853 C 171.801 171.956,172.299 171.090,172.299 170.929 C 172.299 170.769,172.409 170.637,172.544 170.637 C 172.678 170.637,172.858 170.419,172.942 170.152 C 173.150 169.497,174.006 168.102,174.515 167.588 C 174.744 167.357,175.087 166.889,175.277 166.548 C 175.467 166.207,175.779 165.648,175.970 165.305 C 176.160 164.962,176.384 164.619,176.467 164.543 C 177.426 163.663,178.272 160.665,177.562 160.665 C 177.410 160.665,177.285 160.416,177.285 160.111 C 177.285 159.806,177.161 159.557,177.008 159.557 C 176.856 159.557,176.731 159.307,176.731 159.003 C 176.731 158.698,176.607 158.449,176.454 158.449 C 176.302 158.449,176.177 158.199,176.177 157.895 C 176.177 157.590,176.053 157.341,175.900 157.341 C 175.748 157.341,175.623 157.091,175.623 156.787 C 175.623 156.482,175.499 156.233,175.346 156.233 C 175.194 156.233,175.069 155.983,175.069 155.679 C 175.069 155.374,174.945 155.125,174.792 155.125 C 174.640 155.125,174.515 154.875,174.515 154.571 C 174.515 154.266,174.400 154.017,174.259 154.017 C 174.117 154.017,173.958 153.798,173.904 153.532 C 173.828 153.156,173.710 153.234,173.380 153.878 " stroke="none" fill="#fa716b" fill-rule="evenodd"></path><path id="path3" d="M193.144 29.844 C 193.868 29.901,195.052 29.901,195.776 29.844 C 196.499 29.786,195.907 29.740,194.460 29.740 C 193.012 29.740,192.420 29.786,193.144 29.844 M205.203 29.844 C 206.008 29.901,207.255 29.900,207.973 29.843 C 208.692 29.786,208.033 29.740,206.510 29.741 C 204.986 29.742,204.398 29.788,205.203 29.844 M188.989 30.108 C 189.256 30.178,189.692 30.178,189.958 30.108 C 190.225 30.038,190.007 29.981,189.474 29.981 C 188.940 29.981,188.722 30.038,188.989 30.108 M211.568 30.113 C 211.913 30.179,212.412 30.177,212.676 30.107 C 212.941 30.038,212.659 29.984,212.050 29.987 C 211.440 29.990,211.224 30.047,211.568 30.113 M185.253 30.390 C 185.597 30.456,186.096 30.454,186.361 30.384 C 186.625 30.315,186.343 30.261,185.734 30.264 C 185.125 30.267,184.908 30.324,185.253 30.390 M214.615 30.390 C 214.960 30.456,215.459 30.454,215.723 30.384 C 215.988 30.315,215.706 30.261,215.097 30.264 C 214.488 30.267,214.271 30.324,214.615 30.390 M170.083 32.410 C 169.535 32.586,169.506 32.632,169.945 32.632 C 170.249 32.632,170.810 32.532,171.191 32.410 C 171.739 32.234,171.768 32.188,171.330 32.188 C 171.025 32.188,170.464 32.288,170.083 32.410 M167.175 32.977 C 166.788 33.152,166.956 33.177,167.729 33.059 C 168.338 32.966,168.889 32.845,168.952 32.789 C 169.190 32.579,167.706 32.736,167.175 32.977 M232.548 32.964 C 233.720 33.262,234.726 33.262,233.795 32.964 C 233.414 32.842,232.791 32.745,232.410 32.747 C 231.788 32.752,231.802 32.774,232.548 32.964 M162.465 34.072 C 160.789 34.496,159.605 34.852,159.834 34.865 C 160.062 34.877,161.683 34.531,163.435 34.095 C 165.187 33.659,166.371 33.302,166.066 33.302 C 165.762 33.302,164.141 33.648,162.465 34.072 M235.180 33.518 C 235.561 33.640,236.122 33.740,236.427 33.740 C 236.865 33.740,236.836 33.694,236.288 33.518 C 235.907 33.396,235.346 33.296,235.042 33.296 C 234.603 33.296,234.632 33.342,235.180 33.518 M239.170 34.381 C 240.374 34.672,241.411 34.858,241.475 34.795 C 241.610 34.660,237.873 33.782,237.341 33.823 C 237.143 33.839,237.966 34.090,239.170 34.381 M145.983 38.964 C 144.188 39.566,140.428 41.075,140.513 41.160 C 140.603 41.250,141.449 40.959,145.014 39.611 C 146.704 38.972,147.455 38.471,145.983 38.964 M254.709 39.058 C 255.014 39.189,255.450 39.296,255.679 39.296 C 255.941 39.296,255.889 39.208,255.540 39.058 C 255.235 38.927,254.799 38.820,254.571 38.820 C 254.309 38.820,254.360 38.908,254.709 39.058 M266.228 43.605 C 266.475 43.851,274.515 47.601,274.515 47.471 C 274.515 47.395,272.699 46.468,270.480 45.411 C 266.807 43.663,265.897 43.276,266.228 43.605 M129.709 45.834 C 127.995 46.665,126.593 47.414,126.593 47.499 C 126.593 47.583,127.434 47.230,128.463 46.714 C 129.491 46.198,130.925 45.508,131.648 45.180 C 132.372 44.853,132.964 44.525,132.964 44.453 C 132.964 44.253,133.028 44.225,129.709 45.834 M277.008 48.881 C 277.008 48.957,277.507 49.274,278.116 49.584 C 278.726 49.895,279.224 50.087,279.224 50.011 C 279.224 49.935,278.726 49.618,278.116 49.307 C 277.507 48.997,277.008 48.805,277.008 48.881 M119.984 50.953 C 119.016 51.543,118.081 52.174,117.907 52.356 C 117.733 52.537,118.556 52.103,119.737 51.391 C 120.918 50.679,121.884 50.044,121.884 49.979 C 121.884 49.799,121.862 49.810,119.984 50.953 M280.471 50.828 C 281.090 51.343,282.845 52.291,282.410 51.877 C 282.258 51.731,281.634 51.332,281.025 50.990 C 280.416 50.648,280.166 50.575,280.471 50.828 M282.825 52.182 C 282.825 52.247,283.269 52.562,283.812 52.882 C 284.354 53.202,284.720 53.338,284.625 53.184 C 284.440 52.884,282.825 51.985,282.825 52.182 M291.136 57.427 C 291.136 57.491,291.666 57.894,292.313 58.321 C 292.961 58.748,293.344 58.920,293.165 58.704 C 292.822 58.288,291.136 57.227,291.136 57.427 M296.676 61.456 C 298.583 63.074,303.178 66.564,302.805 66.112 C 302.596 65.858,300.914 64.522,299.066 63.142 C 297.218 61.763,296.143 61.004,296.676 61.456 M101.454 63.451 C 100.502 64.212,99.723 64.895,99.723 64.970 C 99.723 65.045,100.533 64.470,101.524 63.691 C 103.071 62.475,103.555 62.019,103.255 62.059 C 103.217 62.064,102.407 62.691,101.454 63.451 M305.738 68.749 C 306.315 69.235,307.419 70.201,308.191 70.896 C 308.964 71.592,308.594 71.195,307.371 70.014 C 306.147 68.833,305.043 67.867,304.918 67.867 C 304.792 67.867,305.162 68.264,305.738 68.749 M92.511 71.122 L 90.997 72.715 92.590 71.201 C 94.070 69.794,94.310 69.529,94.104 69.529 C 94.061 69.529,93.344 70.246,92.511 71.122 M313.850 76.316 C 315.598 78.068,317.089 79.501,317.165 79.501 C 317.242 79.501,315.875 78.068,314.127 76.316 C 312.380 74.564,310.889 73.130,310.812 73.130 C 310.736 73.130,312.103 74.564,313.850 76.316 M86.976 76.385 L 84.072 79.363 87.050 76.459 C 88.688 74.862,90.028 73.522,90.028 73.481 C 90.028 73.281,89.673 73.619,86.976 76.385 M82.005 81.538 L 80.768 82.964 82.212 81.589 C 83.007 80.833,83.657 80.179,83.657 80.135 C 83.657 79.814,83.060 80.321,82.005 81.538 M318.725 81.440 C 320.412 83.222,320.594 83.222,319.060 81.441 C 318.404 80.679,317.765 80.056,317.640 80.056 C 317.516 80.055,318.004 80.679,318.725 81.440 M78.773 85.237 C 77.879 86.258,77.290 87.006,77.465 86.900 C 77.856 86.661,80.716 83.380,80.532 83.380 C 80.460 83.380,79.668 84.215,78.773 85.237 M323.702 87.119 C 325.237 89.092,325.665 89.549,325.260 88.781 C 325.100 88.476,324.392 87.604,323.689 86.842 L 322.409 85.457 323.702 87.119 M73.379 91.898 C 71.423 94.402,71.381 94.460,71.528 94.460 C 71.598 94.460,72.429 93.463,73.373 92.244 C 74.318 91.025,75.035 90.028,74.965 90.028 C 74.896 90.028,74.183 90.869,73.379 91.898 M330.226 95.706 C 331.604 97.611,332.795 99.169,332.871 99.169 C 332.948 99.169,332.538 98.515,331.961 97.715 C 329.132 93.799,327.963 92.244,327.848 92.244 C 327.778 92.244,328.849 93.802,330.226 95.706 M66.833 101.177 C 64.967 104.083,64.605 104.704,65.017 104.294 C 65.169 104.141,65.891 103.082,66.620 101.939 C 67.349 100.796,68.129 99.581,68.354 99.238 C 68.578 98.895,68.698 98.615,68.620 98.615 C 68.542 98.615,67.738 99.768,66.833 101.177 M335.325 103.204 C 335.583 103.671,336.040 104.357,336.341 104.727 L 336.888 105.402 336.420 104.552 C 336.163 104.085,335.705 103.400,335.404 103.029 L 334.857 102.355 335.325 103.204 M64.372 105.055 C 63.418 106.673,63.356 106.811,63.841 106.233 C 64.404 105.562,64.889 104.709,64.708 104.709 C 64.635 104.709,64.484 104.865,64.372 105.055 M337.091 105.956 C 337.558 106.859,337.942 107.360,337.940 107.064 C 337.939 106.911,337.683 106.475,337.371 106.094 C 336.995 105.634,336.901 105.588,337.091 105.956 M61.967 109.072 C 60.604 111.531,59.807 113.100,60.030 112.881 C 60.420 112.500,62.410 108.864,62.229 108.864 C 62.148 108.864,62.031 108.958,61.967 109.072 M341.690 114.404 C 342.227 115.471,342.729 116.343,342.805 116.343 C 342.881 116.343,342.504 115.471,341.967 114.404 C 341.430 113.338,340.928 112.465,340.852 112.465 C 340.776 112.465,341.153 113.338,341.690 114.404 M342.936 116.727 C 342.936 117.024,343.760 118.560,343.920 118.560 C 343.996 118.560,343.853 118.154,343.601 117.659 C 343.087 116.648,342.936 116.437,342.936 116.727 M55.860 121.034 C 54.999 122.855,54.300 124.446,54.308 124.569 C 54.315 124.692,55.064 123.245,55.971 121.354 C 56.878 119.463,57.577 117.873,57.524 117.819 C 57.470 117.766,56.722 119.212,55.860 121.034 M220.447 122.299 C 220.908 123.213,221.485 124.211,221.730 124.515 C 221.975 124.820,221.716 124.197,221.155 123.130 C 219.883 120.714,219.307 120.039,220.447 122.299 M211.295 123.615 C 211.591 124.110,212.358 125.481,212.999 126.662 C 213.641 127.843,214.226 128.809,214.300 128.809 C 214.373 128.809,213.844 127.727,213.123 126.405 C 212.402 125.082,211.679 123.712,211.516 123.360 C 211.352 123.007,211.115 122.718,210.988 122.717 C 210.862 122.716,211.000 123.120,211.295 123.615 M53.500 126.353 C 53.172 127.142,52.949 127.833,53.005 127.889 C 53.061 127.945,53.375 127.345,53.703 126.556 C 54.031 125.767,54.253 125.075,54.197 125.019 C 54.142 124.963,53.828 125.563,53.500 126.353 M347.504 126.801 C 347.611 127.067,347.955 127.942,348.267 128.745 C 348.579 129.548,348.884 130.155,348.945 130.095 C 349.082 129.958,347.639 126.316,347.448 126.316 C 347.372 126.316,347.397 126.534,347.504 126.801 M224.654 130.088 C 224.654 130.240,224.837 130.607,225.060 130.903 C 225.284 131.198,225.467 131.316,225.467 131.163 C 225.467 131.011,225.284 130.644,225.060 130.349 C 224.837 130.053,224.654 129.936,224.654 130.088 M226.125 132.825 C 226.511 133.587,227.028 134.460,227.275 134.765 C 227.522 135.069,227.325 134.571,226.837 133.657 C 225.736 131.596,225.169 130.934,226.125 132.825 M217.175 134.174 C 217.175 134.484,218.473 136.928,218.960 137.535 C 219.205 137.839,218.945 137.216,218.381 136.150 C 217.259 134.027,217.175 133.888,217.175 134.174 M49.857 135.885 C 49.467 136.911,49.201 138.114,49.406 137.928 C 49.628 137.726,50.403 135.180,50.243 135.180 C 50.178 135.180,50.004 135.497,49.857 135.885 M48.405 140.747 C 47.994 142.161,47.701 143.361,47.754 143.414 C 47.907 143.567,49.350 138.769,49.245 138.456 C 49.194 138.302,48.816 139.332,48.405 140.747 M352.394 140.443 C 352.394 140.672,352.501 141.108,352.632 141.413 C 352.782 141.762,352.870 141.813,352.870 141.551 C 352.870 141.323,352.763 140.886,352.632 140.582 C 352.482 140.233,352.394 140.181,352.394 140.443 M231.324 142.079 C 231.301 142.479,233.164 145.983,233.399 145.983 C 233.472 145.983,233.111 145.204,232.599 144.252 C 232.086 143.300,231.594 142.334,231.506 142.105 C 231.379 141.776,231.341 141.770,231.324 142.079 M352.934 142.244 C 352.925 142.396,353.158 143.269,353.452 144.183 C 353.746 145.097,353.984 145.596,353.980 145.291 C 353.973 144.707,352.964 141.767,352.934 142.244 M222.299 143.767 C 222.536 144.224,222.791 144.598,222.867 144.598 C 222.944 144.598,222.813 144.224,222.576 143.767 C 222.340 143.310,222.084 142.936,222.008 142.936 C 221.932 142.936,222.063 143.310,222.299 143.767 M354.048 146.537 C 354.036 146.918,354.146 147.417,354.294 147.645 C 354.636 148.175,354.636 147.605,354.294 146.537 L 354.072 145.845 354.048 146.537 M223.823 146.696 C 223.823 146.927,225.239 149.307,225.377 149.307 C 225.442 149.307,225.178 148.684,224.792 147.922 C 224.161 146.677,223.823 146.249,223.823 146.696 M177.770 150.432 C 175.980 151.340,174.515 152.144,174.515 152.220 C 174.515 152.297,176.011 151.609,177.839 150.693 C 179.668 149.776,181.163 148.965,181.163 148.890 C 181.163 148.701,181.371 148.607,177.770 150.432 M182.410 150.970 C 182.646 151.427,182.902 151.801,182.978 151.801 C 183.054 151.801,182.923 151.427,182.687 150.970 C 182.451 150.512,182.195 150.139,182.119 150.139 C 182.043 150.139,182.174 150.512,182.410 150.970 M238.090 154.786 C 238.665 155.895,239.185 156.753,239.245 156.692 C 239.373 156.564,237.735 153.461,237.322 153.047 C 237.170 152.895,237.516 153.677,238.090 154.786 M184.488 154.954 C 184.488 155.251,185.312 156.787,185.471 156.787 C 185.547 156.787,185.404 156.382,185.152 155.886 C 184.638 154.875,184.488 154.665,184.488 154.954 M229.973 157.876 C 230.318 158.475,230.648 158.918,230.706 158.860 C 230.825 158.741,229.661 156.787,229.471 156.787 C 229.402 156.787,229.628 157.277,229.973 157.876 M43.794 160.596 C 43.164 164.515,42.624 169.507,42.734 170.400 C 42.843 171.296,42.849 171.289,42.893 170.222 C 42.939 169.086,43.920 161.244,44.217 159.626 C 44.308 159.131,44.318 158.726,44.239 158.726 C 44.159 158.726,43.959 159.567,43.794 160.596 M188.366 162.604 C 188.677 163.213,188.993 163.712,189.069 163.712 C 189.146 163.712,188.954 163.213,188.643 162.604 C 188.332 161.994,188.015 161.496,187.939 161.496 C 187.863 161.496,188.055 161.994,188.366 162.604 M242.482 162.881 C 242.861 163.566,243.677 165.062,244.296 166.205 C 244.915 167.348,245.423 168.173,245.425 168.040 C 245.431 167.711,242.803 162.882,242.242 162.188 C 241.995 161.884,242.103 162.195,242.482 162.881 M190.028 165.731 C 190.028 165.933,190.897 167.590,191.003 167.590 C 191.194 167.590,190.531 165.929,190.277 165.773 C 190.140 165.688,190.028 165.669,190.028 165.731 M235.590 168.298 C 236.211 169.357,236.273 169.636,235.978 170.030 C 235.650 170.466,235.660 170.467,236.125 170.044 C 236.589 169.621,235.613 167.036,234.989 167.036 C 234.913 167.036,235.183 167.604,235.590 168.298 M358.236 170.083 C 358.236 170.616,358.293 170.834,358.363 170.568 C 358.432 170.301,358.432 169.865,358.363 169.598 C 358.293 169.332,358.236 169.550,358.236 170.083 M182.825 170.743 C 182.825 171.040,183.650 172.576,183.809 172.576 C 183.885 172.576,183.742 172.171,183.490 171.676 C 182.976 170.665,182.825 170.454,182.825 170.743 M232.548 173.022 L 230.055 175.397 232.618 173.117 C 234.891 171.094,235.364 170.624,235.111 170.642 C 235.073 170.645,233.920 171.716,232.548 173.022 M42.242 175.139 C 42.134 177.024,42.096 178.808,42.159 179.103 C 42.222 179.398,42.368 177.913,42.483 175.802 C 42.598 173.690,42.636 171.906,42.566 171.837 C 42.497 171.767,42.351 173.253,42.242 175.139 M194.044 173.684 C 194.430 174.446,194.809 175.069,194.885 175.069 C 194.961 175.069,194.707 174.446,194.321 173.684 C 193.935 172.922,193.557 172.299,193.481 172.299 C 193.405 172.299,193.658 172.922,194.044 173.684 M358.524 173.684 C 358.524 174.370,358.578 174.650,358.644 174.307 C 358.710 173.965,358.710 173.404,358.644 173.061 C 358.578 172.718,358.524 172.999,358.524 173.684 M249.623 176.108 C 250.427 177.593,251.215 179.088,251.373 179.430 C 251.532 179.772,251.766 180.052,251.892 180.053 C 252.019 180.054,251.880 179.650,251.583 179.155 C 251.286 178.660,250.455 177.164,249.737 175.831 C 249.019 174.498,248.371 173.407,248.297 173.407 C 248.222 173.407,248.819 174.623,249.623 176.108 M228.794 176.385 L 227.839 177.424 228.878 176.469 C 229.449 175.944,229.917 175.477,229.917 175.430 C 229.917 175.219,229.682 175.418,228.794 176.385 M358.832 178.809 C 358.832 180.637,358.877 181.349,358.931 180.391 C 358.985 179.433,358.985 177.937,358.930 177.067 C 358.875 176.197,358.831 176.981,358.832 178.809 M239.456 178.463 L 238.643 179.363 239.543 178.549 C 240.038 178.102,240.443 177.697,240.443 177.649 C 240.443 177.435,240.215 177.623,239.456 178.463 M224.654 180.098 L 222.299 182.337 224.589 180.332 C 226.626 178.548,227.362 177.819,227.094 177.849 C 227.047 177.854,225.949 178.866,224.654 180.098 M241.584 179.363 C 242.073 180.277,242.590 181.150,242.734 181.302 C 243.139 181.731,241.654 178.881,241.146 178.255 C 240.899 177.950,241.096 178.449,241.584 179.363 M235.873 181.618 L 233.380 183.996 235.942 181.719 C 238.187 179.723,238.713 179.199,238.435 179.233 C 238.397 179.237,237.244 180.311,235.873 181.618 M188.590 181.856 C 188.730 182.161,188.914 182.597,188.999 182.825 C 189.132 183.184,189.156 183.182,189.175 182.809 C 189.187 182.572,189.003 182.135,188.766 181.840 C 188.342 181.311,188.339 181.311,188.590 181.856 M219.114 185.084 L 216.759 187.323 219.048 185.318 C 221.085 183.535,221.822 182.805,221.554 182.835 C 221.507 182.841,220.409 183.852,219.114 185.084 M41.911 185.042 C 41.911 185.880,41.963 186.222,42.027 185.803 C 42.090 185.384,42.090 184.699,42.027 184.280 C 41.963 183.861,41.911 184.204,41.911 185.042 M200.000 185.319 C 200.461 186.233,200.901 186.981,200.978 186.981 C 201.054 186.981,200.738 186.233,200.277 185.319 C 199.816 184.404,199.376 183.657,199.300 183.657 C 199.223 183.657,199.539 184.404,200.000 185.319 M230.332 186.595 L 227.839 188.971 230.402 186.690 C 232.675 184.667,233.148 184.198,232.895 184.215 C 232.857 184.218,231.704 185.289,230.332 186.595 M190.443 185.596 C 190.680 186.053,190.935 186.427,191.011 186.427 C 191.088 186.427,190.957 186.053,190.720 185.596 C 190.484 185.139,190.228 184.765,190.152 184.765 C 190.076 184.765,190.207 185.139,190.443 185.596 M255.065 186.219 C 255.511 187.019,256.277 188.390,256.767 189.266 C 257.257 190.142,257.721 190.859,257.797 190.859 C 257.873 190.859,257.552 190.173,257.084 189.335 C 256.616 188.497,255.850 187.126,255.381 186.288 C 254.913 185.450,254.468 184.765,254.391 184.765 C 254.315 184.765,254.618 185.419,255.065 186.219 M358.832 190.166 C 358.832 191.994,358.877 192.706,358.931 191.748 C 358.985 190.790,358.985 189.294,358.930 188.424 C 358.875 187.554,358.831 188.338,358.832 190.166 M247.102 189.612 C 247.754 190.831,248.411 191.953,248.563 192.105 C 248.715 192.258,248.312 191.385,247.667 190.166 C 247.022 188.947,246.365 187.825,246.206 187.673 C 246.048 187.521,246.451 188.393,247.102 189.612 M42.138 190.605 C 42.155 192.192,42.262 194.301,42.374 195.291 C 42.491 196.319,42.520 195.131,42.442 192.521 C 42.289 187.415,42.088 186.145,42.138 190.605 M214.893 188.789 C 214.324 189.318,213.957 189.751,214.077 189.751 C 214.197 189.751,214.719 189.314,215.235 188.781 C 216.441 187.537,216.235 187.542,214.893 188.789 M226.169 190.242 C 225.555 190.810,224.455 191.815,223.724 192.477 C 222.993 193.138,222.436 193.719,222.486 193.769 C 222.536 193.818,223.698 192.815,225.069 191.539 C 226.440 190.263,227.500 189.217,227.424 189.215 C 227.348 189.212,226.783 189.675,226.169 190.242 M211.634 191.739 C 210.228 193.056,210.137 193.182,211.219 192.312 C 212.511 191.272,213.802 190.012,213.547 190.040 C 213.485 190.046,212.625 190.811,211.634 191.739 M194.575 193.698 C 194.664 193.889,194.813 194.262,194.907 194.529 C 195.002 194.796,195.192 195.014,195.330 195.014 C 195.469 195.014,195.389 194.640,195.152 194.183 C 194.745 193.395,194.234 192.965,194.575 193.698 M220.901 195.083 L 219.806 196.260 220.983 195.165 C 222.078 194.147,222.288 193.906,222.078 193.906 C 222.033 193.906,221.503 194.436,220.901 195.083 M259.557 194.286 C 259.557 194.585,260.657 196.676,260.815 196.676 C 260.891 196.676,260.686 196.146,260.359 195.499 C 259.717 194.225,259.557 193.983,259.557 194.286 M358.519 195.152 C 358.522 195.762,358.578 195.978,358.645 195.634 C 358.711 195.289,358.708 194.791,358.639 194.526 C 358.570 194.261,358.516 194.543,358.519 195.152 M205.440 195.900 C 205.965 197.053,206.290 197.015,207.478 195.663 L 208.170 194.875 207.325 195.637 C 206.499 196.381,205.817 196.624,205.817 196.175 C 205.817 196.052,205.628 195.709,205.396 195.413 C 205.062 194.987,205.071 195.089,205.440 195.900 M217.036 198.516 L 214.543 200.893 217.105 198.616 C 219.350 196.621,219.876 196.097,219.598 196.130 C 219.560 196.135,218.407 197.208,217.036 198.516 M261.496 198.061 C 261.807 198.670,262.123 199.169,262.200 199.169 C 262.276 199.169,262.084 198.670,261.773 198.061 C 261.462 197.452,261.145 196.953,261.069 196.953 C 260.993 196.953,261.185 197.452,261.496 198.061 M42.723 198.753 C 42.714 199.363,42.805 200.485,42.924 201.247 C 43.096 202.356,43.141 202.439,43.149 201.662 C 43.154 201.129,43.064 200.007,42.948 199.169 C 42.765 197.842,42.735 197.789,42.723 198.753 M358.242 198.753 C 358.245 199.363,358.301 199.580,358.368 199.235 C 358.434 198.890,358.431 198.392,358.362 198.127 C 358.293 197.862,358.239 198.144,358.242 198.753 M252.078 198.697 C 252.078 198.965,254.842 203.953,255.179 204.294 C 255.492 204.610,252.669 199.170,252.312 198.767 C 252.183 198.623,252.078 198.591,252.078 198.697 M213.140 202.008 L 212.327 202.909 213.227 202.095 C 214.066 201.337,214.255 201.108,214.041 201.108 C 213.993 201.108,213.588 201.513,213.140 202.008 M43.247 203.245 C 43.208 203.962,43.963 209.328,44.330 210.942 C 44.568 211.990,44.573 211.975,44.428 210.665 C 44.133 207.995,43.279 202.638,43.247 203.245 M211.219 203.716 C 210.621 204.195,210.291 204.302,210.042 204.096 C 209.800 203.897,209.695 203.905,209.695 204.121 C 209.695 204.292,209.827 204.432,209.989 204.432 C 210.150 204.432,210.190 204.580,210.079 204.761 C 209.967 204.942,210.396 204.672,211.032 204.161 C 212.060 203.334,212.344 203.044,212.119 203.048 C 212.081 203.049,211.676 203.350,211.219 203.716 M200.641 205.534 C 200.974 206.292,201.342 206.915,201.459 206.919 C 201.576 206.922,201.356 206.302,200.970 205.540 C 200.065 203.755,199.858 203.751,200.641 205.534 M211.496 207.756 C 211.882 208.518,212.260 209.141,212.336 209.141 C 212.412 209.141,212.159 208.518,211.773 207.756 C 211.387 206.994,211.009 206.371,210.932 206.371 C 210.856 206.371,211.110 206.994,211.496 207.756 M267.400 209.003 C 267.785 209.765,268.298 210.637,268.539 210.942 C 268.781 211.247,268.595 210.748,268.127 209.834 C 267.659 208.920,267.146 208.047,266.988 207.895 C 266.829 207.742,267.015 208.241,267.400 209.003 M213.770 212.040 C 214.333 213.177,214.838 214.063,214.894 214.008 C 215.017 213.884,213.065 209.972,212.880 209.972 C 212.807 209.972,213.207 210.903,213.770 212.040 M258.726 210.922 C 258.726 211.222,261.235 215.789,261.400 215.789 C 261.521 215.789,259.103 211.110,258.835 210.826 C 258.775 210.763,258.726 210.806,258.726 210.922 M147.922 213.989 C 148.303 214.207,148.740 214.385,148.892 214.385 C 149.044 214.385,148.857 214.207,148.476 213.989 C 148.096 213.771,147.659 213.593,147.507 213.593 C 147.355 213.593,147.542 213.771,147.922 213.989 M149.314 214.483 C 149.542 214.744,154.084 216.646,154.200 216.529 C 154.258 216.472,153.336 216.018,152.152 215.520 C 149.523 214.414,149.128 214.269,149.314 214.483 M206.801 217.480 C 207.346 218.562,207.852 219.387,207.926 219.314 C 208.063 219.176,206.136 215.512,205.927 215.512 C 205.863 215.512,206.256 216.398,206.801 217.480 M354.338 220.968 C 353.722 223.532,353.140 225.878,353.043 226.181 C 352.897 226.635,352.917 226.655,353.154 226.291 C 353.489 225.776,355.738 216.588,355.570 216.420 C 355.508 216.358,354.953 218.404,354.338 220.968 M217.313 219.114 C 217.699 219.875,218.077 220.499,218.153 220.499 C 218.230 220.499,217.976 219.875,217.590 219.114 C 217.204 218.352,216.826 217.729,216.750 217.729 C 216.673 217.729,216.927 218.352,217.313 219.114 M272.769 218.695 C 273.022 219.226,273.279 219.611,273.339 219.551 C 273.465 219.425,272.625 217.729,272.435 217.729 C 272.365 217.729,272.515 218.163,272.769 218.695 M263.573 219.945 C 263.810 220.402,264.065 220.776,264.142 220.776 C 264.218 220.776,264.087 220.402,263.850 219.945 C 263.614 219.488,263.358 219.114,263.282 219.114 C 263.206 219.114,263.337 219.488,263.573 219.945 M162.327 220.083 C 162.708 220.301,163.144 220.479,163.296 220.479 C 163.449 220.479,163.262 220.301,162.881 220.083 C 162.500 219.865,162.064 219.687,161.911 219.687 C 161.759 219.687,161.946 219.865,162.327 220.083 M141.274 220.192 C 141.274 220.543,142.367 221.161,142.591 220.937 C 142.679 220.848,142.615 220.776,142.448 220.776 C 142.281 220.776,141.949 220.580,141.710 220.340 C 141.470 220.101,141.274 220.034,141.274 220.192 M273.418 220.083 C 273.419 220.235,273.674 220.672,273.986 221.053 C 274.362 221.513,274.456 221.559,274.266 221.191 C 273.799 220.288,273.416 219.787,273.418 220.083 M142.943 221.131 C 143.169 221.390,149.651 224.126,149.766 224.011 C 149.822 223.955,148.464 223.313,146.748 222.585 C 143.163 221.062,142.743 220.902,142.943 221.131 M165.097 221.212 C 165.097 221.399,166.536 221.922,166.673 221.785 C 166.736 221.722,166.407 221.538,165.942 221.376 C 165.477 221.214,165.097 221.140,165.097 221.212 M265.294 223.269 C 265.373 223.573,265.540 223.823,265.665 223.823 C 265.789 223.823,265.973 224.081,266.073 224.398 C 266.173 224.714,266.321 224.907,266.400 224.828 C 266.533 224.695,265.445 222.715,265.239 222.715 C 265.189 222.715,265.214 222.964,265.294 223.269 M220.418 225.060 C 220.981 226.197,221.487 227.082,221.542 227.027 C 221.665 226.904,219.713 222.992,219.528 222.992 C 219.455 222.992,219.856 223.922,220.418 225.060 M273.338 223.702 C 272.044 224.376,271.557 224.815,272.507 224.451 C 273.299 224.147,275.231 222.998,274.931 223.008 C 274.778 223.013,274.062 223.326,273.338 223.702 M175.653 225.607 C 175.790 225.744,179.722 227.453,181.856 228.303 C 184.627 229.408,182.745 228.412,179.331 226.968 C 175.997 225.558,175.373 225.327,175.653 225.607 M212.638 228.801 C 213.212 229.863,213.725 230.688,213.779 230.635 C 213.899 230.515,211.913 226.870,211.728 226.870 C 211.655 226.870,212.065 227.739,212.638 228.801 M158.864 227.988 C 159.778 228.424,160.651 228.778,160.803 228.774 C 161.159 228.764,157.848 227.188,157.479 227.192 C 157.327 227.193,157.950 227.551,158.864 227.988 M222.992 230.194 C 223.453 231.108,223.893 231.856,223.969 231.856 C 224.045 231.856,223.730 231.108,223.269 230.194 C 222.807 229.280,222.367 228.532,222.291 228.532 C 222.215 228.532,222.530 229.280,222.992 230.194 M48.796 229.086 C 48.796 229.314,49.026 230.125,49.307 230.886 C 49.589 231.648,49.819 232.084,49.819 231.856 C 49.819 231.627,49.589 230.817,49.307 230.055 C 49.026 229.294,48.796 228.857,48.796 229.086 M190.053 231.675 C 190.294 231.947,197.314 234.912,197.433 234.792 C 197.489 234.736,196.002 234.040,194.128 233.245 C 190.089 231.531,189.840 231.435,190.053 231.675 M226.098 236.138 C 226.890 237.732,227.583 238.991,227.637 238.937 C 227.760 238.815,224.975 233.241,224.791 233.241 C 224.717 233.241,225.305 234.545,226.098 236.138 M172.715 233.789 C 175.968 235.172,177.375 235.715,177.145 235.499 C 176.797 235.172,172.822 233.512,172.443 233.536 C 172.288 233.545,172.410 233.659,172.715 233.789 M205.540 238.342 C 205.921 238.546,206.544 238.790,206.925 238.885 C 207.306 238.979,207.119 238.817,206.510 238.524 C 205.256 237.921,204.479 237.775,205.540 238.342 M183.691 238.333 C 183.941 238.613,190.933 241.569,191.056 241.447 C 191.112 241.390,189.626 240.694,187.754 239.899 C 183.624 238.147,183.473 238.089,183.691 238.333 M218.602 240.428 C 219.256 241.638,219.835 242.584,219.889 242.530 C 220.009 242.411,217.731 238.227,217.546 238.227 C 217.473 238.227,217.949 239.217,218.602 240.428 M228.809 241.551 C 229.270 242.465,229.710 243.213,229.786 243.213 C 229.863 243.213,229.547 242.465,229.086 241.551 C 228.624 240.637,228.185 239.889,228.108 239.889 C 228.032 239.889,228.347 240.637,228.809 241.551 M347.981 240.914 C 347.826 241.341,347.489 242.188,347.231 242.798 C 346.974 243.407,346.879 243.781,347.020 243.629 C 347.393 243.228,348.538 240.413,348.389 240.264 C 348.320 240.195,348.137 240.487,347.981 240.914 M191.967 241.967 C 192.348 242.184,192.784 242.363,192.936 242.363 C 193.089 242.363,192.902 242.184,192.521 241.967 C 192.140 241.749,191.704 241.571,191.551 241.571 C 191.399 241.571,191.586 241.749,191.967 241.967 M217.867 243.500 C 218.781 243.937,219.654 244.291,219.806 244.286 C 220.162 244.277,216.851 242.701,216.482 242.704 C 216.330 242.706,216.953 243.064,217.867 243.500 M53.758 242.997 C 53.731 243.293,56.856 249.884,56.970 249.770 C 57.024 249.716,56.328 248.126,55.422 246.235 C 54.517 244.345,53.768 242.887,53.758 242.997 M232.054 247.772 C 232.923 249.518,233.678 250.902,233.731 250.849 C 233.854 250.726,230.792 244.598,230.609 244.598 C 230.535 244.598,231.185 246.027,232.054 247.772 M199.446 245.006 C 199.446 245.226,201.454 246.006,201.612 245.849 C 201.690 245.770,201.687 245.706,201.604 245.706 C 201.521 245.706,201.001 245.518,200.449 245.287 C 199.897 245.057,199.446 244.930,199.446 245.006 M342.580 252.781 C 341.864 254.222,341.338 255.402,341.412 255.402 C 341.596 255.402,344.103 250.382,343.980 250.259 C 343.926 250.205,343.296 251.340,342.580 252.781 M213.857 251.048 C 213.991 251.200,217.756 252.873,219.391 253.506 C 221.096 254.167,219.286 253.172,217.114 252.255 C 214.222 251.035,213.666 250.828,213.857 251.048 M234.300 252.342 C 234.556 252.944,234.803 253.327,234.851 253.192 C 234.938 252.942,234.150 251.247,233.947 251.247 C 233.886 251.247,234.045 251.739,234.300 252.342 M232.895 254.173 C 232.171 254.550,231.579 254.920,231.579 254.996 C 231.579 255.072,232.202 254.818,232.964 254.432 C 233.726 254.046,234.349 253.670,234.349 253.596 C 234.349 253.413,234.374 253.403,232.895 254.173 M223.546 255.263 C 223.927 255.481,224.363 255.659,224.515 255.659 C 224.668 255.659,224.481 255.481,224.100 255.263 C 223.719 255.045,223.283 254.867,223.130 254.867 C 222.978 254.867,223.165 255.045,223.546 255.263 M225.485 256.094 C 225.866 256.312,226.302 256.490,226.454 256.490 C 226.607 256.490,226.420 256.312,226.039 256.094 C 225.658 255.876,225.222 255.698,225.069 255.698 C 224.917 255.698,225.104 255.876,225.485 256.094 M61.074 258.033 C 61.652 259.100,62.251 260.097,62.407 260.249 C 62.563 260.402,62.218 259.654,61.641 258.587 C 61.063 257.521,60.463 256.524,60.307 256.371 C 60.152 256.219,60.497 256.967,61.074 258.033 M336.374 263.781 C 335.191 265.610,334.760 266.471,335.439 265.651 C 336.023 264.946,336.882 263.435,336.699 263.435 C 336.643 263.435,336.497 263.591,336.374 263.781 M65.651 265.761 C 65.651 265.992,68.153 269.806,68.304 269.806 C 68.378 269.806,67.998 269.118,67.460 268.277 C 66.922 267.436,66.482 266.679,66.482 266.595 C 66.482 266.511,66.295 266.255,66.066 266.027 C 65.838 265.798,65.651 265.679,65.651 265.761 M331.928 270.706 C 331.058 271.810,329.639 273.995,329.894 273.837 C 330.224 273.633,332.503 270.360,332.316 270.360 C 332.253 270.360,332.078 270.516,331.928 270.706 M71.389 274.307 C 72.998 276.409,74.842 278.670,74.945 278.670 C 75.015 278.670,74.243 277.611,73.229 276.316 C 72.214 275.021,71.326 273.961,71.254 273.961 C 71.182 273.961,71.243 274.117,71.389 274.307 M324.906 280.125 C 324.409 280.772,323.620 281.736,323.151 282.266 C 322.593 282.897,322.526 283.040,322.956 282.681 C 323.642 282.109,326.169 278.947,325.940 278.947 C 325.867 278.947,325.402 279.477,324.906 280.125 M78.359 283.063 C 79.132 283.955,79.984 284.859,80.253 285.071 C 80.521 285.283,79.945 284.553,78.973 283.449 C 78.000 282.344,77.148 281.440,77.079 281.440 C 77.010 281.440,77.586 282.170,78.359 283.063 M321.174 284.557 L 320.360 285.457 321.260 284.643 C 322.100 283.885,322.288 283.657,322.074 283.657 C 322.026 283.657,321.621 284.062,321.174 284.557 M81.579 286.704 C 82.174 287.313,82.723 287.812,82.799 287.812 C 82.876 287.812,82.451 287.313,81.856 286.704 C 81.261 286.094,80.712 285.596,80.635 285.596 C 80.559 285.596,80.984 286.094,81.579 286.704 M313.321 292.764 C 306.528 299.613,306.552 299.729,313.385 293.077 C 316.166 290.370,320.775 285.517,320.459 285.631 C 320.404 285.650,317.192 288.860,313.321 292.764 M84.211 289.612 C 85.038 290.450,85.777 291.136,85.854 291.136 C 85.930 291.136,85.315 290.450,84.488 289.612 C 83.660 288.774,82.921 288.089,82.844 288.089 C 82.768 288.089,83.383 288.774,84.211 289.612 M93.213 298.338 C 93.964 299.100,94.640 299.723,94.716 299.723 C 94.792 299.723,94.241 299.100,93.490 298.338 C 92.740 297.576,92.064 296.953,91.988 296.953 C 91.911 296.953,92.463 297.576,93.213 298.338 M96.676 301.226 C 96.676 301.359,100.789 304.818,101.801 305.536 C 102.848 306.279,101.796 305.325,99.238 303.212 C 97.829 302.048,96.676 301.155,96.676 301.226 M301.247 303.783 C 300.061 304.869,300.025 304.929,300.996 304.199 C 302.022 303.427,302.997 302.477,302.735 302.504 C 302.678 302.510,302.008 303.085,301.247 303.783 M104.918 307.811 C 105.306 308.281,108.587 310.632,108.587 310.440 C 108.587 310.372,107.684 309.659,106.579 308.853 C 105.474 308.048,104.727 307.579,104.918 307.811 M113.850 313.928 C 113.850 314.063,115.236 314.967,117.521 316.325 C 118.092 316.665,118.560 316.879,118.560 316.802 C 118.560 316.724,117.780 316.192,116.828 315.620 C 115.876 315.048,114.816 314.401,114.474 314.183 C 114.131 313.965,113.850 313.850,113.850 313.928 M285.042 315.133 C 283.899 315.830,282.839 316.535,282.687 316.699 C 282.535 316.864,282.722 316.812,283.102 316.584 C 286.630 314.467,287.258 314.072,287.258 313.969 C 287.258 313.783,287.235 313.795,285.042 315.133 M120.360 318.006 C 120.817 318.308,121.316 318.556,121.468 318.557 C 121.620 318.557,121.337 318.309,120.838 318.005 C 119.662 317.287,119.277 317.288,120.360 318.006 M123.269 319.484 C 123.269 319.668,128.573 322.489,128.693 322.369 C 128.746 322.316,127.547 321.615,126.029 320.811 C 124.511 320.007,123.269 319.410,123.269 319.484 M275.557 320.471 C 272.880 321.959,272.879 322.143,275.554 320.805 C 277.602 319.780,278.245 319.349,277.632 319.412 C 277.517 319.423,276.584 319.900,275.557 320.471 M130.217 323.095 C 130.502 323.350,132.133 324.100,132.133 323.975 C 132.133 323.816,130.597 322.992,130.300 322.992 C 130.191 322.992,130.154 323.038,130.217 323.095 M135.368 325.507 C 135.681 325.819,142.442 328.564,142.575 328.432 C 142.628 328.378,140.973 327.642,138.896 326.797 C 136.819 325.951,135.232 325.370,135.368 325.507 M261.965 326.849 C 260.166 327.589,258.608 328.290,258.502 328.407 C 258.283 328.650,258.111 328.713,262.327 327.002 C 264.079 326.290,265.564 325.658,265.628 325.596 C 265.957 325.278,264.922 325.632,261.965 326.849 M152.656 331.972 C 152.850 332.167,159.440 334.073,159.859 334.056 C 160.074 334.047,158.629 333.551,156.648 332.954 C 153.198 331.913,152.400 331.717,152.656 331.972 M244.943 332.752 C 243.381 333.223,242.153 333.659,242.215 333.720 C 242.324 333.829,248.222 332.163,248.453 331.958 C 248.751 331.695,247.543 331.968,244.943 332.752 M239.889 334.211 C 239.204 334.409,238.892 334.574,239.197 334.578 C 239.501 334.581,240.249 334.419,240.859 334.218 C 242.293 333.746,241.516 333.739,239.889 334.211 M179.224 337.780 C 179.224 337.839,179.592 337.941,180.041 338.007 C 180.490 338.073,180.794 338.025,180.717 337.900 C 180.580 337.678,179.224 337.569,179.224 337.780 M220.710 337.869 C 221.054 337.935,221.553 337.933,221.818 337.863 C 222.082 337.794,221.801 337.740,221.191 337.743 C 220.582 337.746,220.365 337.803,220.710 337.869 M181.478 338.068 C 181.808 338.421,190.712 339.021,197.652 339.158 L 204.571 339.294 198.615 339.058 C 192.326 338.807,184.637 338.323,182.548 338.045 C 181.863 337.954,181.381 337.964,181.478 338.068 M215.789 338.267 C 214.647 338.402,211.655 338.616,209.141 338.744 C 205.608 338.923,205.140 338.985,207.078 339.017 C 209.640 339.059,215.825 338.641,218.560 338.241 C 220.759 337.919,218.568 337.939,215.789 338.267 " stroke="none" fill="#99b8dd" fill-rule="evenodd"></path><path id="path4" d="M260.603 45.775 C 260.717 52.119,260.856 52.605,260.878 46.745 C 260.889 43.889,260.815 41.551,260.712 41.551 C 260.610 41.551,260.561 43.452,260.603 45.775 M249.919 42.843 C 249.266 43.238,248.786 43.615,248.854 43.683 C 249.005 43.834,250.058 43.243,250.800 42.590 C 251.549 41.931,251.326 41.995,249.919 42.843 M243.698 46.419 C 242.662 46.981,242.726 47.215,243.767 46.676 C 244.224 46.440,244.598 46.187,244.598 46.115 C 244.598 45.937,244.569 45.947,243.698 46.419 M238.712 49.189 C 238.293 49.416,237.950 49.661,237.950 49.732 C 237.950 49.999,238.388 49.832,239.058 49.307 C 239.881 48.664,239.758 48.621,238.712 49.189 M229.896 54.549 C 228.739 55.706,228.760 57.267,229.948 58.514 L 230.811 59.418 230.087 58.497 C 229.046 57.172,229.094 55.713,230.215 54.592 C 230.684 54.123,230.986 53.740,230.886 53.740 C 230.787 53.740,230.341 54.104,229.896 54.549 M261.042 64.043 C 261.063 68.935,261.186 72.718,261.318 72.586 C 261.451 72.454,261.434 68.568,261.280 63.806 L 261.003 55.263 261.042 64.043 M231.025 59.352 C 231.256 59.575,233.949 59.901,233.731 59.680 C 233.619 59.567,232.934 59.417,232.207 59.346 C 231.481 59.276,230.949 59.279,231.025 59.352 M236.034 59.935 C 236.098 59.991,237.147 60.107,238.366 60.193 C 239.697 60.288,240.305 60.258,239.889 60.120 C 239.217 59.896,235.803 59.732,236.034 59.935 M241.331 62.071 C 240.831 62.973,240.520 63.709,240.640 63.705 C 240.875 63.697,242.480 60.671,242.330 60.520 C 242.280 60.470,241.831 61.168,241.331 62.071 M239.751 64.820 C 239.514 65.277,239.383 65.651,239.459 65.651 C 239.536 65.651,239.791 65.277,240.028 64.820 C 240.264 64.363,240.395 63.989,240.319 63.989 C 240.243 63.989,239.987 64.363,239.751 64.820 M249.307 65.038 C 249.307 65.157,249.557 65.255,249.861 65.255 C 250.166 65.255,250.416 65.157,250.416 65.038 C 250.416 64.918,250.166 64.820,249.861 64.820 C 249.557 64.820,249.307 64.918,249.307 65.038 M253.101 69.448 C 253.833 70.546,254.533 71.450,254.657 71.456 C 254.895 71.469,253.665 69.677,252.478 68.283 C 252.088 67.825,252.369 68.350,253.101 69.448 M236.990 69.692 C 236.732 70.086,236.584 70.471,236.661 70.548 C 236.738 70.626,237.001 70.303,237.244 69.832 C 237.783 68.790,237.635 68.708,236.990 69.692 M235.810 71.800 C 234.277 74.387,233.796 75.346,234.028 75.346 C 234.169 75.346,234.354 75.128,234.438 74.861 C 234.589 74.387,235.460 72.850,235.734 72.576 C 235.810 72.500,236.037 72.145,236.238 71.787 C 236.812 70.766,236.415 70.778,235.810 71.800 M260.388 73.365 C 260.388 73.494,260.107 73.735,259.765 73.900 C 259.422 74.065,259.283 74.209,259.457 74.219 C 259.630 74.230,260.067 73.993,260.426 73.693 C 260.786 73.394,260.925 73.144,260.734 73.139 C 260.544 73.134,260.388 73.236,260.388 73.365 M244.183 74.238 C 243.946 74.695,243.815 75.069,243.892 75.069 C 243.968 75.069,244.223 74.695,244.460 74.238 C 244.696 73.781,244.827 73.407,244.751 73.407 C 244.675 73.407,244.419 73.781,244.183 74.238 M230.455 81.209 C 230.270 81.565,229.811 82.386,229.437 83.033 C 229.063 83.681,228.893 84.211,229.060 84.211 C 229.226 84.211,229.363 84.091,229.363 83.946 C 229.363 83.800,229.743 83.037,230.207 82.250 C 230.671 81.463,230.992 80.761,230.921 80.691 C 230.851 80.620,230.641 80.853,230.455 81.209 M239.327 82.760 C 238.762 83.437,238.108 84.738,238.258 84.887 C 238.326 84.955,238.728 84.395,239.151 83.641 C 239.958 82.206,240.011 81.941,239.327 82.760 M228.129 85.319 L 227.637 86.288 228.243 85.655 C 228.576 85.307,228.797 84.871,228.735 84.686 C 228.672 84.500,228.400 84.785,228.129 85.319 M236.981 86.981 C 236.744 87.438,236.613 87.812,236.689 87.812 C 236.766 87.812,237.021 87.438,237.258 86.981 C 237.494 86.524,237.625 86.150,237.549 86.150 C 237.473 86.150,237.217 86.524,236.981 86.981 M234.220 91.852 C 233.962 92.246,233.798 92.617,233.857 92.675 C 233.915 92.733,234.181 92.411,234.449 91.958 C 235.046 90.948,234.867 90.865,234.220 91.852 M233.241 93.340 C 233.241 93.485,232.861 94.248,232.397 95.035 C 231.933 95.822,231.613 96.525,231.686 96.598 C 231.758 96.670,232.093 96.188,232.431 95.525 C 232.768 94.863,233.227 94.041,233.451 93.698 C 233.712 93.299,233.748 93.075,233.550 93.075 C 233.380 93.075,233.241 93.194,233.241 93.340 M218.435 102.466 C 218.041 103.242,217.773 103.878,217.839 103.878 C 218.041 103.878,219.407 101.309,219.275 101.177 C 219.207 101.109,218.829 101.689,218.435 102.466 M227.562 103.601 C 227.326 104.058,227.195 104.432,227.271 104.432 C 227.347 104.432,227.603 104.058,227.839 103.601 C 228.076 103.144,228.207 102.770,228.131 102.770 C 228.054 102.770,227.799 103.144,227.562 103.601 M226.388 105.453 C 225.901 106.501,226.184 106.598,226.718 105.566 C 226.962 105.095,227.064 104.710,226.946 104.711 C 226.828 104.712,226.577 105.046,226.388 105.453 M225.337 107.548 L 224.897 108.449 225.462 107.756 C 226.005 107.089,226.183 106.648,225.907 106.648 C 225.835 106.648,225.578 107.053,225.337 107.548 M213.712 110.803 C 213.476 111.260,213.344 111.634,213.421 111.634 C 213.497 111.634,213.753 111.260,213.989 110.803 C 214.225 110.346,214.356 109.972,214.280 109.972 C 214.204 109.972,213.948 110.346,213.712 110.803 M221.402 114.317 C 220.915 115.365,221.198 115.462,221.732 114.430 C 221.976 113.959,222.078 113.574,221.960 113.576 C 221.842 113.577,221.591 113.910,221.402 114.317 M220.370 116.229 C 220.112 116.623,219.963 117.009,220.041 117.086 C 220.118 117.163,220.380 116.840,220.624 116.369 C 221.162 115.328,221.014 115.246,220.370 116.229 M219.290 118.126 C 218.642 119.114,218.730 119.324,219.422 118.444 C 219.744 118.034,219.948 117.640,219.875 117.567 C 219.802 117.494,219.539 117.745,219.290 118.126 M209.313 118.318 C 208.809 118.907,209.042 119.382,209.834 119.382 C 209.986 119.382,209.942 119.275,209.736 119.145 C 209.444 118.959,209.430 118.777,209.676 118.318 C 210.077 117.569,209.955 117.569,209.313 118.318 M172.870 154.375 C 172.662 154.711,172.309 155.267,172.086 155.609 C 171.826 156.010,171.792 156.233,171.990 156.233 C 172.160 156.233,172.299 156.096,172.299 155.929 C 172.299 155.762,172.562 155.256,172.883 154.805 C 173.205 154.354,173.418 153.935,173.358 153.875 C 173.297 153.814,173.078 154.040,172.870 154.375 M171.078 157.202 C 170.829 157.583,170.732 157.895,170.863 157.895 C 170.995 157.895,171.244 157.583,171.418 157.202 C 171.591 156.821,171.688 156.510,171.633 156.510 C 171.577 156.510,171.328 156.821,171.078 157.202 M177.839 161.741 C 177.839 162.046,177.578 162.739,177.258 163.281 C 176.483 164.594,176.787 164.551,177.602 163.232 C 178.328 162.057,178.455 161.567,178.092 161.342 C 177.953 161.256,177.839 161.436,177.839 161.741 M165.534 165.811 C 164.967 166.666,164.550 167.412,164.608 167.470 C 164.665 167.528,165.181 166.880,165.753 166.030 C 166.325 165.180,166.742 164.434,166.680 164.371 C 166.617 164.309,166.102 164.957,165.534 165.811 M174.307 167.745 C 174.117 167.952,173.961 168.200,173.961 168.297 C 173.961 168.395,173.698 168.843,173.377 169.295 C 173.056 169.746,172.848 170.170,172.915 170.237 C 172.982 170.305,173.446 169.729,173.945 168.959 C 174.826 167.599,175.011 166.982,174.307 167.745 M164.072 168.207 C 163.456 169.001,163.395 169.348,163.976 168.749 C 164.318 168.396,164.542 168.050,164.472 167.981 C 164.402 167.911,164.222 168.012,164.072 168.207 M160.732 173.338 C 160.285 174.062,159.460 175.370,158.899 176.247 C 158.337 177.123,157.991 177.839,158.130 177.839 C 158.268 177.839,158.536 177.465,158.726 177.008 C 158.915 176.551,159.180 176.177,159.313 176.177 C 159.447 176.177,159.557 176.044,159.557 175.881 C 159.557 175.718,159.912 175.064,160.347 174.427 C 161.263 173.083,161.846 172.022,161.668 172.022 C 161.599 172.022,161.178 172.614,160.732 173.338 M169.021 176.085 C 168.669 176.622,168.438 177.118,168.508 177.188 C 168.578 177.257,168.913 176.865,169.252 176.316 C 170.056 175.015,169.855 174.813,169.021 176.085 M164.316 183.518 C 164.143 183.899,164.046 184.211,164.102 184.211 C 164.157 184.211,164.406 183.899,164.656 183.518 C 164.906 183.137,165.002 182.825,164.871 182.825 C 164.739 182.825,164.490 183.137,164.316 183.518 M153.134 185.244 C 151.638 187.521,151.465 187.812,151.606 187.812 C 151.830 187.812,154.073 184.452,153.939 184.317 C 153.874 184.252,153.512 184.669,153.134 185.244 M162.804 185.876 C 162.275 186.493,162.177 186.829,162.602 186.566 C 162.874 186.398,163.536 185.319,163.368 185.319 C 163.320 185.319,163.066 185.569,162.804 185.876 M161.099 188.530 C 160.534 189.382,160.124 190.133,160.189 190.198 C 160.307 190.316,161.394 188.772,162.015 187.604 C 162.612 186.481,162.149 186.950,161.099 188.530 M149.520 190.928 C 147.604 193.876,146.298 196.122,146.502 196.122 C 146.637 196.122,146.902 195.748,147.091 195.291 C 147.281 194.834,147.545 194.460,147.679 194.460 C 147.813 194.460,147.922 194.326,147.922 194.163 C 147.922 194.000,148.278 193.346,148.712 192.709 C 149.614 191.388,150.213 190.305,150.042 190.305 C 149.978 190.305,149.743 190.585,149.520 190.928 M155.452 197.368 C 155.279 197.749,155.182 198.061,155.237 198.061 C 155.293 198.061,155.542 197.749,155.792 197.368 C 156.041 196.988,156.138 196.676,156.007 196.676 C 155.875 196.676,155.626 196.988,155.452 197.368 M154.571 198.701 C 154.571 198.901,154.309 199.346,153.989 199.689 C 153.669 200.033,153.468 200.375,153.543 200.450 C 153.618 200.525,153.922 200.236,154.218 199.808 C 155.073 198.574,155.177 198.338,154.864 198.338 C 154.703 198.338,154.571 198.501,154.571 198.701 M151.305 203.787 C 150.956 204.333,150.720 204.829,150.780 204.889 C 150.840 204.948,151.220 204.496,151.625 203.884 C 152.031 203.271,152.267 202.775,152.151 202.782 C 152.034 202.788,151.654 203.240,151.305 203.787 M140.255 205.471 C 138.621 208.045,138.647 208.269,140.301 205.862 C 140.860 205.048,141.266 204.332,141.204 204.269 C 141.141 204.207,140.714 204.748,140.255 205.471 M150.025 205.956 C 149.776 206.337,149.679 206.648,149.811 206.648 C 149.942 206.648,150.192 206.337,150.365 205.956 C 150.539 205.575,150.635 205.263,150.580 205.263 C 150.525 205.263,150.275 205.575,150.025 205.956 M148.716 207.964 C 147.852 209.353,147.726 209.710,148.398 208.864 C 149.018 208.083,149.666 206.925,149.483 206.925 C 149.417 206.925,149.071 207.393,148.716 207.964 M137.837 209.280 C 137.588 209.661,137.491 209.972,137.622 209.972 C 137.754 209.972,138.003 209.661,138.177 209.280 C 138.350 208.899,138.447 208.587,138.392 208.587 C 138.336 208.587,138.087 208.899,137.837 209.280 M135.813 212.396 C 134.162 214.968,134.006 215.235,134.154 215.235 C 134.284 215.235,136.582 211.814,137.083 210.873 C 137.783 209.560,137.133 210.339,135.813 212.396 M140.896 220.214 C 140.472 220.856,140.196 221.452,140.284 221.540 C 140.372 221.627,140.443 221.572,140.443 221.416 C 140.443 221.261,140.761 220.791,141.149 220.372 C 141.538 219.953,141.813 219.484,141.762 219.329 C 141.710 219.175,141.321 219.573,140.896 220.214 M128.973 223.130 C 128.723 223.511,128.627 223.823,128.758 223.823 C 128.889 223.823,129.139 223.511,129.312 223.130 C 129.486 222.749,129.583 222.438,129.527 222.438 C 129.472 222.438,129.222 222.749,128.973 223.130 M138.832 223.407 C 138.658 223.788,138.561 224.100,138.617 224.100 C 138.672 224.100,138.922 223.788,139.171 223.407 C 139.421 223.026,139.517 222.715,139.386 222.715 C 139.255 222.715,139.005 223.026,138.832 223.407 M136.871 226.548 C 136.398 227.285,136.011 227.988,136.011 228.110 C 136.011 228.344,137.155 226.730,137.668 225.772 C 138.232 224.718,137.734 225.202,136.871 226.548 M126.643 226.731 C 126.470 227.112,126.373 227.424,126.428 227.424 C 126.484 227.424,126.733 227.112,126.983 226.731 C 127.232 226.350,127.329 226.039,127.198 226.039 C 127.066 226.039,126.817 226.350,126.643 226.731 M123.488 231.640 C 122.888 232.564,122.402 233.518,122.530 233.518 C 122.732 233.518,124.144 231.254,124.019 231.129 C 123.953 231.062,123.713 231.292,123.488 231.640 M132.402 233.457 C 131.887 234.079,130.669 236.288,130.841 236.288 C 130.912 236.288,131.216 235.872,131.515 235.364 C 131.815 234.856,132.278 234.108,132.544 233.702 C 133.094 232.862,133.012 232.720,132.402 233.457 M119.887 237.327 C 119.072 238.563,118.500 239.612,118.642 239.612 C 118.731 239.612,120.060 237.601,120.611 236.634 C 121.057 235.852,120.523 236.363,119.887 237.327 M128.073 240.304 C 127.640 240.990,127.192 241.550,127.078 241.551 C 126.963 241.551,126.873 241.769,126.876 242.036 C 126.883 242.610,127.574 241.804,128.536 240.097 C 129.352 238.650,129.026 238.795,128.073 240.304 M126.089 243.352 C 125.916 243.733,125.819 244.044,125.874 244.044 C 125.930 244.044,126.179 243.733,126.429 243.352 C 126.678 242.971,126.775 242.659,126.644 242.659 C 126.512 242.659,126.263 242.971,126.089 243.352 M115.097 244.875 C 114.861 245.332,114.730 245.706,114.806 245.706 C 114.882 245.706,115.138 245.332,115.374 244.875 C 115.610 244.418,115.741 244.044,115.665 244.044 C 115.589 244.044,115.333 244.418,115.097 244.875 M123.407 247.645 C 123.171 248.102,123.040 248.476,123.116 248.476 C 123.192 248.476,123.448 248.102,123.684 247.645 C 123.921 247.188,124.052 246.814,123.975 246.814 C 123.899 246.814,123.644 247.188,123.407 247.645 M111.431 250.623 C 109.649 253.427,109.496 253.722,110.209 252.989 C 110.536 252.653,110.803 252.297,110.803 252.199 C 110.803 252.100,111.172 251.473,111.623 250.805 C 112.587 249.376,113.087 248.476,112.917 248.476 C 112.850 248.476,112.182 249.443,111.431 250.623 M121.807 250.142 C 121.278 250.759,121.180 251.095,121.605 250.832 C 121.877 250.664,122.539 249.584,122.370 249.584 C 122.323 249.584,122.069 249.835,121.807 250.142 M120.102 252.796 C 119.536 253.648,119.129 254.402,119.198 254.470 C 119.266 254.538,119.570 254.173,119.874 253.658 C 120.178 253.143,120.644 252.390,120.910 251.984 C 121.176 251.579,121.334 251.247,121.262 251.247 C 121.190 251.247,120.668 251.944,120.102 252.796 M106.629 258.102 C 105.982 259.131,105.263 260.284,105.030 260.665 L 104.608 261.357 105.213 260.746 C 105.545 260.409,105.817 260.058,105.817 259.965 C 105.817 259.871,106.173 259.274,106.607 258.637 C 107.522 257.297,108.107 256.233,107.929 256.233 C 107.861 256.233,107.277 257.074,106.629 258.102 M115.697 259.578 C 115.426 259.895,115.244 260.274,115.292 260.420 C 115.341 260.566,115.604 260.307,115.878 259.844 C 116.457 258.863,116.392 258.767,115.697 259.578 M114.455 261.634 C 114.281 262.015,114.185 262.327,114.240 262.327 C 114.295 262.327,114.545 262.015,114.794 261.634 C 115.044 261.253,115.141 260.942,115.009 260.942 C 114.878 260.942,114.628 261.253,114.455 261.634 M110.216 268.281 C 109.853 268.813,109.463 269.249,109.349 269.250 C 109.235 269.251,109.144 269.470,109.147 269.737 C 109.154 270.271,109.747 269.623,110.651 268.093 C 111.300 266.994,111.005 267.121,110.216 268.281 M98.300 271.122 C 97.436 272.511,97.310 272.868,97.982 272.022 C 98.603 271.241,99.251 270.083,99.068 270.083 C 99.001 270.083,98.656 270.551,98.300 271.122 M108.587 270.664 C 108.587 270.831,108.329 271.329,108.014 271.772 C 107.699 272.214,107.543 272.575,107.668 272.574 C 107.793 272.573,108.179 272.074,108.526 271.466 C 108.874 270.858,109.029 270.360,108.873 270.360 C 108.716 270.360,108.587 270.497,108.587 270.664 M106.787 273.684 C 106.550 274.141,106.419 274.515,106.495 274.515 C 106.572 274.515,106.827 274.141,107.064 273.684 C 107.300 273.227,107.431 272.853,107.355 272.853 C 107.279 272.853,107.023 273.227,106.787 273.684 M94.207 277.566 C 93.736 278.331,93.353 279.047,93.354 279.159 C 93.356 279.401,94.314 278.021,94.896 276.939 C 95.580 275.666,95.116 276.088,94.207 277.566 M104.042 277.978 C 103.793 278.359,103.696 278.670,103.827 278.670 C 103.959 278.670,104.208 278.359,104.382 277.978 C 104.555 277.597,104.652 277.285,104.597 277.285 C 104.541 277.285,104.292 277.597,104.042 277.978 M103.039 279.440 C 102.815 279.711,102.345 280.490,101.996 281.171 C 101.298 282.531,101.897 281.833,102.994 280.010 C 103.679 278.870,103.697 278.645,103.039 279.440 M89.767 284.569 C 89.559 284.905,89.207 285.461,88.984 285.803 C 88.723 286.204,88.689 286.427,88.888 286.427 C 89.058 286.427,89.197 286.290,89.197 286.123 C 89.197 285.956,89.460 285.450,89.781 284.999 C 90.102 284.548,90.316 284.129,90.255 284.069 C 90.195 284.008,89.975 284.234,89.767 284.569 M87.976 287.396 C 87.726 287.777,87.629 288.089,87.761 288.089 C 87.892 288.089,88.142 287.777,88.315 287.396 C 88.489 287.015,88.585 286.704,88.530 286.704 C 88.475 286.704,88.225 287.015,87.976 287.396 M96.726 289.335 C 96.553 289.716,96.456 290.028,96.511 290.028 C 96.567 290.028,96.816 289.716,97.066 289.335 C 97.316 288.954,97.412 288.643,97.281 288.643 C 97.149 288.643,96.900 288.954,96.726 289.335 M95.178 291.828 C 94.928 292.209,94.832 292.521,94.963 292.521 C 95.094 292.521,95.344 292.209,95.517 291.828 C 95.691 291.447,95.788 291.136,95.732 291.136 C 95.677 291.136,95.427 291.447,95.178 291.828 M94.044 293.629 C 93.808 294.086,93.677 294.460,93.753 294.460 C 93.829 294.460,94.085 294.086,94.321 293.629 C 94.558 293.172,94.689 292.798,94.613 292.798 C 94.536 292.798,94.281 293.172,94.044 293.629 M91.634 296.731 C 91.893 296.990,92.041 296.990,92.299 296.731 C 92.558 296.473,92.484 296.399,91.967 296.399 C 91.450 296.399,91.376 296.473,91.634 296.731 " stroke="none" fill="#e89492" fill-rule="evenodd"></path></g></svg>